<svg xmlns="http://www.w3.org/2000/svg" viewBox="0 0 95.53 95.53"><defs><style>.cls-1{fill:#ff6c24;}.cls-2{fill:#00133a;}.cls-3{fill:#fff;}</style></defs><title>avatar-5</title><g id="Layer_2" data-name="Layer 2"><g id="OBJECTS"><circle class="cls-1" cx="47.76" cy="47.76" r="47.29" transform="translate(-7.05 87.24) rotate(-80.76)"/><path class="cls-2" d="M47.76,95.53A47.77,47.77,0,1,1,95.53,47.76,47.82,47.82,0,0,1,47.76,95.53ZM47.76,1A46.81,46.81,0,1,0,94.57,47.76,46.86,46.86,0,0,0,47.76,1Z"/><path class="cls-3" d="M70.18,50.52c5.25-5,6.88,5.44,4.66,8.78-1.93,2.91-5.53,2.89-5.88-1.14"/><path class="cls-2" d="M71.63,61.83a3,3,0,0,1-.73-.09c-1.37-.35-2.25-1.64-2.41-3.54l1-.08c.12,1.47.74,2.45,1.69,2.7A3.37,3.37,0,0,0,74.45,59c1.46-2.21,1-7.5-.7-9-.84-.71-1.93-.44-3.24.8l-.66-.7c2.26-2.13,3.8-1.44,4.51-.83,2.28,1.91,2.48,7.82.88,10.23A4.56,4.56,0,0,1,71.63,61.83Z"/><path class="cls-3" d="M70.38,59c.87-10.77,2.93-28.1-1.94-38-4.47-9.1-20-9.83-28.95-7.58C19.1,18.46,22.8,58.91,31,71.91c5.21,8.24,13.86,15.34,24.34,11.65C63.68,80.63,69.72,67.08,70.38,59Z"/><path class="cls-2" d="M49.69,85h0c-7,0-13.91-4.69-19.08-12.87C24.35,62.25,21.32,39,27,24.91c2.63-6.57,6.81-10.61,12.42-12a40.14,40.14,0,0,1,9.41-1.09c4.72,0,16.13.87,20.08,8.92C73.36,29.89,72.06,45,71.11,56c-.09,1-.18,2-.26,3C70.17,67.43,64,81,55.5,84A17.5,17.5,0,0,1,49.69,85Zm-.91-72.27a39.32,39.32,0,0,0-9.18,1.05C34.3,15.15,30.34,19,27.83,25.27c-5.53,13.8-2.56,36.66,3.59,46.39,5,7.89,11.65,12.43,18.27,12.43h0a16.42,16.42,0,0,0,5.5-1c8-2.81,14.06-16.21,14.71-24.19.08-1,.17-2,.26-3C71.1,45,72.39,30.07,68,21.15,64.29,13.58,53.32,12.77,48.78,12.77Z"/><path class="cls-2" d="M75.18,40c-.32-6.35-.53-12.62-2.81-18.52-2.52-6.52-8-9.68-14.56-10.35a95.19,95.19,0,0,0-19.09.23c-6.07.63-12.32,6.3-14.51,11.84a108.46,108.46,0,0,0-5.77,18.84,44.44,44.44,0,0,0,.76,21.44c1,3.58,2.65,5.68,4.82,8.59C25.43,74,29,77.36,31.07,78c-2.47-4.56-2.28-11.11-2.28-16.38,0-5.64,0-11.7,3.4-16.24,1.65-2.18,4.42-4.33,7.1-4.77,3.13-.51,6.3,0,9.36-1a19.21,19.21,0,0,0,9.64-7.09,11.88,11.88,0,0,0,1.77,3.3c1.18,1.55,3.11,3.07,3.62,4.95.88,3.2-1.61,6.24-1.29,9.5a25.65,25.65,0,0,0,3.19,9.44c1.52,2.93,1.75,6.15,1.58,9.49-.13,2.59.25,7.09-1.5,9.1A38.61,38.61,0,0,0,74.8,70c2.62-3.29,3.25-7.7,3.24-11.84C78,51.63,75.49,46.21,75.18,40Z"/><path class="cls-2" d="M51.54,62.54a.49.49,0,0,1-.46-.33,2.8,2.8,0,0,0-2.61-1.85,3.65,3.65,0,0,0-3.56,1.9.48.48,0,0,1-.87-.4,4.62,4.62,0,0,1,4.48-2.45A3.69,3.69,0,0,1,52,61.91a.47.47,0,0,1-.3.6A.4.4,0,0,1,51.54,62.54Z"/><path class="cls-2" d="M40.23,52.51a1.91,1.91,0,1,1-1.91-1.9A1.91,1.91,0,0,1,40.23,52.51Z"/><path class="cls-2" d="M59,52.51a1.91,1.91,0,1,1-1.91-1.9A1.91,1.91,0,0,1,59,52.51Z"/><path class="cls-2" d="M34.16,49.75a.5.5,0,0,1-.24-.06.48.48,0,0,1-.17-.65,4.67,4.67,0,0,1,3.64-1.82,5.16,5.16,0,0,1,3.82,1.5.48.48,0,1,1-.64.72,4.38,4.38,0,0,0-3.11-1.27,3.84,3.84,0,0,0-2.89,1.35A.48.48,0,0,1,34.16,49.75Z"/><path class="cls-2" d="M53.16,49.16a.49.49,0,0,1-.34-.14.48.48,0,0,1,0-.68A5.4,5.4,0,0,1,60,48l.21.18-.05.27a1,1,0,0,1-.12.3.5.5,0,0,1-.66.2.48.48,0,0,1-.25-.43,4.46,4.46,0,0,0-5.63.48A.46.46,0,0,1,53.16,49.16Z"/><path class="cls-2" d="M46.06,71.53A23.33,23.33,0,0,1,40.78,71c-1-.21-4.1-1.06-4.23-2.91A.49.49,0,0,1,37,67.6a.48.48,0,0,1,.51.45c.06.88,1.85,1.67,3.48,2a22.67,22.67,0,0,0,5.07.48,39.54,39.54,0,0,0,5.43-.49,7.89,7.89,0,0,0,4.59-2l.28-.24c.42-.35,1.06-.89,1-1.29a.48.48,0,0,1,.94-.18c.18,1-.71,1.7-1.3,2.2l-.26.22A8.83,8.83,0,0,1,51.62,71,39.42,39.42,0,0,1,46.06,71.53Z"/><path class="cls-2" d="M47.32,76.38a.48.48,0,0,1-.07-.95,4.5,4.5,0,0,0,.6-.17,5.73,5.73,0,0,1,.89-.23l.43-.07a3.92,3.92,0,0,1,1.64,0,.48.48,0,1,1-.25.92,2.83,2.83,0,0,0-1.22,0l-.48.07a3.74,3.74,0,0,0-.71.19,4.88,4.88,0,0,1-.75.2Z"/><path class="cls-2" d="M36.46,52.88a3.07,3.07,0,0,1-1-.17,2.66,2.66,0,0,1-.77-.35,2.43,2.43,0,0,1-.29-.26L34.32,52a.49.49,0,0,1-.27-.44.51.51,0,0,1,.32-.45.56.56,0,0,1,.62.21l-.15.25h.07l.17-.16a.87.87,0,0,0,.17.16,1.7,1.7,0,0,0,.45.2,2.26,2.26,0,0,0,1,.11.48.48,0,0,1,.62.27.49.49,0,0,1-.28.62A1.76,1.76,0,0,1,36.46,52.88Z"/><path class="cls-2" d="M59.67,54.37a2.41,2.41,0,0,1-1.09-.27c-.38-.21-1-.64-1-1.21a.47.47,0,0,1,.49-.45.48.48,0,0,1,.46.44,2,2,0,0,0,.5.38,1.44,1.44,0,0,0,1,.1.48.48,0,0,1,.58.34.49.49,0,0,1-.34.59A2.57,2.57,0,0,1,59.67,54.37Z"/><path class="cls-2" d="M58.94,52.73a1.74,1.74,0,0,1-.77-.15.47.47,0,1,1,.42-.85,1.49,1.49,0,0,0,.73,0,1.88,1.88,0,0,0,.42-.23.49.49,0,0,1,.56-.24.47.47,0,0,1,.32.59c-.14.5-1,.79-1,.79A2.17,2.17,0,0,1,58.94,52.73Z"/><path class="cls-2" d="M36.28,54.4h-.17c-.86,0-1.73-.14-2-.69a.48.48,0,0,1,.21-.64.49.49,0,0,1,.65.21,4.09,4.09,0,0,0,1.15.16,1.74,1.74,0,0,0,1.12-.27.47.47,0,0,1,.54.78A2.55,2.55,0,0,1,36.28,54.4Z"/><path class="cls-2" d="M56.69,30.6c0,1.2-.86,2.17-1.35,3.24a14.87,14.87,0,0,1-3.54,5.22c-1.27,1.08-2.48,2.18-3.75,3.26a13.14,13.14,0,0,1-4.3,2.25c-.77.26-1.51.63-2.25.91a11.88,11.88,0,0,1-1.15.38,12,12,0,0,0,2.08-.07,24.9,24.9,0,0,0,3-.92A17.94,17.94,0,0,0,50,43a26.56,26.56,0,0,0,4.58-3.43c2.16-2.1,4.17-4.88,4.69-7.75Z"/></g></g></svg>