<svg xmlns="http://www.w3.org/2000/svg" viewBox="0 0 95.53 95.53"><defs><style>.cls-1{fill:#ff340d;}.cls-2{fill:#00133a;}.cls-3{fill:#fff;}</style></defs><title>avatar-6</title><g id="Layer_2" data-name="Layer 2"><g id="OBJECTS"><path class="cls-1" d="M95.05,47.76A47.29,47.29,0,1,1,47.76.48,47.29,47.29,0,0,1,95.05,47.76Z"/><path class="cls-2" d="M47.76,95.53A47.77,47.77,0,1,1,95.53,47.76,47.82,47.82,0,0,1,47.76,95.53ZM47.76,1A46.81,46.81,0,1,0,94.57,47.76,46.86,46.86,0,0,0,47.76,1Z"/><path class="cls-3" d="M24.37,49.36c-5.2-4.92-6.82,5.38-4.62,8.7,1.91,2.88,5.48,2.86,5.83-1.13"/><path class="cls-2" d="M22.94,60.57a4.54,4.54,0,0,1-3.59-2.25c-1.58-2.38-1.38-8.24.88-10.14.71-.6,2.23-1.28,4.47.83L24,49.7c-1.29-1.22-2.37-1.49-3.2-.79-1.74,1.46-2.15,6.69-.69,8.89a3.3,3.3,0,0,0,3.28,1.75c.94-.23,1.55-1.21,1.67-2.66l1,.08c-.17,1.89-1,3.16-2.4,3.51A3,3,0,0,1,22.94,60.57Z"/><path class="cls-3" d="M68.39,49.36c5.2-4.92,6.81,5.38,4.62,8.7-1.92,2.88-5.49,2.86-5.83-1.13"/><path class="cls-2" d="M69.82,60.57a2.9,2.9,0,0,1-.72-.09c-1.36-.35-2.23-1.62-2.4-3.51l1-.08c.13,1.45.74,2.43,1.68,2.66a3.31,3.31,0,0,0,3.28-1.75c1.45-2.2,1-7.43-.69-8.89-.83-.7-1.91-.43-3.21.79L68.06,49c2.24-2.12,3.76-1.43,4.47-.83,2.26,1.9,2.45,7.76.87,10.14A4.51,4.51,0,0,1,69.82,60.57Z"/><path class="cls-3" d="M68.58,60.9c.87-10,2.9-26-1.92-35.21-4.43-8.42-19.78-9.09-28.69-7-20.2,4.72-16.54,42.17-8.4,54.21,5.16,7.63,13.74,14.2,24.12,10.79C61.94,81,67.93,68.42,68.58,60.9Z"/><path class="cls-2" d="M48.08,85.08h0c-6.89,0-13.78-4.35-18.9-11.92-6-8.83-9.08-30-4-43,2.58-6.58,6.84-10.6,12.66-12a42.26,42.26,0,0,1,9.32-1c4.67,0,16,.8,19.9,8.26C71.54,34,70.25,48,69.31,58.17c-.09,1-.18,1.89-.25,2.77-.69,7.82-6.81,20.42-15.23,23.19A18.37,18.37,0,0,1,48.08,85.08Zm-.9-66.92a40.87,40.87,0,0,0-9.1,1c-5.5,1.28-9.53,5.11-12,11.38-5,12.75-2,33.45,3.88,42.09,4.94,7.31,11.54,11.5,18.11,11.5h0a17.44,17.44,0,0,0,5.46-.9c7.93-2.6,13.92-15,14.57-22.36.07-.88.16-1.81.25-2.78.93-10.09,2.21-23.91-2.13-32.17C62.55,18.92,51.68,18.16,47.18,18.16Z"/><path class="cls-2" d="M39.75,53a1.6,1.6,0,1,1-1.6-1.6A1.59,1.59,0,0,1,39.75,53Z"/><path class="cls-2" d="M56.93,53a1.6,1.6,0,0,1-3.19,0,1.6,1.6,0,1,1,3.19,0Z"/><path class="cls-2" d="M66.66,25.69c-4.43-8.42-19.78-9.09-28.69-7C25,21.72,21.86,38.31,23.46,53c2.19-.7,4.19-2.22,6.23-3.39a29.75,29.75,0,0,0,6.81-5.66c2.54-2.73,5-5.4,7.43-8.28a18.4,18.4,0,0,0,3.39-6.78c0,3.13,2,6.83,3.73,9.23a35.65,35.65,0,0,0,8.17,7.8,27.54,27.54,0,0,0,9.46,4.54,5.8,5.8,0,0,1,.77.26C70.05,42,70,32.14,66.66,25.69Z"/><path class="cls-2" d="M25,61.51a7.93,7.93,0,0,0,1.87-5.33,25.31,25.31,0,0,0-.16-3.72,17.94,17.94,0,0,1-.46-3.72L23.08,46.8A64.84,64.84,0,0,0,25,61.51Z"/><path class="cls-2" d="M69.72,45.43A4.28,4.28,0,0,0,67,44.24l-1.7,1.86c0,4.75-.43,10,3.43,13C69.11,55.11,69.58,50.3,69.72,45.43Z"/><path class="cls-2" d="M35.06,22.37a7.05,7.05,0,0,0,.32-3.57,9.15,9.15,0,0,0-1.76-3.42c-1.87-2.48-4.41-2.67-7.25-2.17a11.24,11.24,0,0,0-6.86,3.73,20.86,20.86,0,0,0-3.8,6.82c-.61,2.09-1.8,4.5-1.16,6.83a8.48,8.48,0,0,0,4.68,4.81A9,9,0,0,0,26.84,34a8.21,8.21,0,0,0,2.44-1.94c.57-.8,1.13-1.65,1.71-2.47a38.35,38.35,0,0,0,2.68-4.31"/><path class="cls-2" d="M60.47,23.37a7,7,0,0,1-.32-3.56,9.27,9.27,0,0,1,1.75-3.42c1.88-2.48,4.42-2.68,7.25-2.18A11.29,11.29,0,0,1,76,17.94a21.19,21.19,0,0,1,3.8,6.83c.61,2.08,1.79,4.5,1.16,6.83a8.46,8.46,0,0,1-4.68,4.8A9,9,0,0,1,68.69,35a8.35,8.35,0,0,1-2.45-1.93c-.57-.81-1.13-1.65-1.7-2.48a37,37,0,0,1-2.68-4.31"/><path class="cls-2" d="M38,60h0a8.75,8.75,0,0,1-3.61-.74,6.67,6.67,0,0,1-2.72-2.2,5.18,5.18,0,0,1-.6-3v-.33a7.31,7.31,0,0,1,.66-3A11.53,11.53,0,0,1,33.53,48a7.36,7.36,0,0,1,5.4-2.08,2.67,2.67,0,0,1,.42,0c3.44,0,5.66,4,5.84,6,.27,3.11-1.25,6.85-4.28,7.71A10.51,10.51,0,0,1,38,60Zm1.33-13.15a2.17,2.17,0,0,0-.36,0,6.52,6.52,0,0,0-4.77,1.78,11,11,0,0,0-1.6,2.48,6.38,6.38,0,0,0-.57,2.63v.34a4.22,4.22,0,0,0,.45,2.45,5.52,5.52,0,0,0,2.31,1.84,7.7,7.7,0,0,0,3.21.66h0a9.77,9.77,0,0,0,2.63-.37c2.52-.73,3.82-4,3.59-6.72C44.08,50.22,42.06,46.86,39.35,46.86Z"/><path class="cls-2" d="M55.2,60h0a8.71,8.71,0,0,1-3.6-.74,6.62,6.62,0,0,1-2.73-2.2,5.14,5.14,0,0,1-.59-3v-.34a7.46,7.46,0,0,1,.65-3A11.53,11.53,0,0,1,50.71,48a7.4,7.4,0,0,1,5.4-2.08,2.72,2.72,0,0,1,.43,0c3.43,0,5.65,4,5.83,6,.27,3.11-1.25,6.85-4.28,7.71A10.4,10.4,0,0,1,55.2,60Zm1.34-13.15a2.36,2.36,0,0,0-.37,0,6.54,6.54,0,0,0-4.77,1.78,11,11,0,0,0-1.6,2.48,6.38,6.38,0,0,0-.57,2.63v.35a4.29,4.29,0,0,0,.45,2.44A5.55,5.55,0,0,0,52,58.4a7.62,7.62,0,0,0,3.2.66h0a9.71,9.71,0,0,0,2.63-.37c2.52-.73,3.82-4,3.59-6.72C61.27,50.22,59.24,46.86,56.54,46.86Z"/><path class="cls-2" d="M44.83,54.25l-.34-.89a7.87,7.87,0,0,1,3-.2c.37,0,.73,0,1.05,0v1c-.34,0-.71,0-1.11,0A7.32,7.32,0,0,0,44.83,54.25Z"/><path class="cls-2" d="M62.08,52.79l-.2-.93A13.26,13.26,0,0,0,64,51.14a9.84,9.84,0,0,1,3.16-.89l0,1a8.76,8.76,0,0,0-2.83.82A14.44,14.44,0,0,1,62.08,52.79Z"/><path class="cls-2" d="M31.79,53.53a2.73,2.73,0,0,1-1.12-.63,3.47,3.47,0,0,0-.38-.29A17.86,17.86,0,0,0,28,51.44,16.56,16.56,0,0,1,25,49.75l.59-.74a17.31,17.31,0,0,0,2.86,1.56,19.31,19.31,0,0,1,2.4,1.23c.16.11.31.24.47.36a1.79,1.79,0,0,0,.71.44Z"/><path class="cls-2" d="M46.66,63.41a5.61,5.61,0,0,1-3.12-1.13.49.49,0,0,1-.07-.67.47.47,0,0,1,.67-.07,4.13,4.13,0,0,0,3,.84.86.86,0,0,0,.63-.62.49.49,0,0,1,.6-.31.48.48,0,0,1,.31.6,1.84,1.84,0,0,1-1.27,1.25A3,3,0,0,1,46.66,63.41Z"/><path class="cls-2" d="M47.55,71.57a8,8,0,0,1-1-.06c-4.45-.46-7.57-2.29-9.53-5.59a.48.48,0,1,1,.82-.49c1.8,3,4.68,4.71,8.81,5.13a6.57,6.57,0,0,0,5.06-1.5l.19-.15a6.73,6.73,0,0,0,1.71-1.65,7.77,7.77,0,0,0,.38-1c.31-.91.43-1.23.73-1.36l.2-.09.23.09a.49.49,0,0,1,.23.64.41.41,0,0,1-.19.2c-.08.18-.21.56-.3.83a6.16,6.16,0,0,1-.48,1.18,7.57,7.57,0,0,1-1.92,1.91l-.19.14A7.44,7.44,0,0,1,47.55,71.57Z"/><path class="cls-2" d="M45,76.79a.48.48,0,0,1-.47-.37.49.49,0,0,1,.37-.57l.5-.11a11.87,11.87,0,0,1,2.71-.39h0a.48.48,0,1,1,0,1,11.43,11.43,0,0,0-2.5.37l-.51.11Z"/></g></g></svg>