<svg xmlns="http://www.w3.org/2000/svg" viewBox="0 0 95.53 95.53"><defs><style>.cls-1{fill:#ff6c24;}.cls-2{fill:#00133a;}.cls-3{fill:#fff;}</style></defs><title>avatar-11</title><g id="Layer_2" data-name="Layer 2"><g id="OBJECTS"><path class="cls-1" d="M95.05,47.47A47.29,47.29,0,1,1,47.47.48,47.29,47.29,0,0,1,95.05,47.47Z"/><path class="cls-2" d="M47.76,95.53A47.77,47.77,0,0,1,47.46,0h.31a47.77,47.77,0,0,1,.29,95.53ZM47.77,1h-.3a46.81,46.81,0,0,0,.29,93.61h.3A46.81,46.81,0,0,0,47.77,1Z"/><path class="cls-3" d="M24.51,43.47C19,38.32,17.36,49.2,19.7,52.68c2,3,5.8,3,6.14-1.23"/><path class="cls-2" d="M23.05,55.28A4.74,4.74,0,0,1,19.3,53c-1.68-2.5-1.51-8.66.85-10.68.74-.63,2.33-1.35,4.69.85l-.65.7c-1.39-1.29-2.54-1.57-3.42-.82-1.83,1.56-2.23,7.1-.68,9.42.95,1.4,2.35,2.14,3.5,1.84s1.65-1.3,1.78-2.85l.94.08c-.15,2-1.06,3.32-2.48,3.69A2.88,2.88,0,0,1,23.05,55.28Z"/><path class="cls-3" d="M71,43.18c5.46-5.23,7.23,5.64,4.93,9.15-2,3.05-5.76,3.05-6.16-1.16"/><path class="cls-2" d="M72.53,55a3.06,3.06,0,0,1-.74-.09c-1.42-.35-2.35-1.69-2.53-3.66l.95-.09c.14,1.55.8,2.58,1.81,2.82s2.55-.47,3.47-1.88c1.53-2.33,1.06-7.87-.79-9.41-.89-.74-2-.45-3.41.86l-.66-.69c2.33-2.23,3.93-1.53,4.68-.9,2.39,2,2.63,8.14,1,10.66A4.74,4.74,0,0,1,72.53,55Z"/><path class="cls-3" d="M71.26,58.13C72.11,47.37,74.14,30.07,69,20.2c-4.73-9-20.92-9.67-30.32-7.37C17.39,18.05,21.5,58.39,30.18,71.31,35.67,79.5,44.77,86.52,55.7,82.78,64.39,79.8,70.62,66.24,71.26,58.13Z"/><path class="cls-2" d="M49.68,84.29h0c-7.22,0-14.48-4.63-19.9-12.71C23.35,62,20,39.1,25.41,25.05c2.68-6.93,7.11-11.2,13.15-12.68a43.82,43.82,0,0,1,10.11-1.15c4.86,0,16.61.85,20.74,8.76,4.77,9.12,3.5,24.19,2.57,35.2-.09,1-.17,2-.24,3-.67,8.42-7,22-15.89,25.06A18.84,18.84,0,0,1,49.68,84.29Zm-1-72.12a42.87,42.87,0,0,0-9.88,1.12c-5.72,1.41-9.93,5.48-12.49,12.1-5.35,13.8-2,36.26,4.27,45.66,5.24,7.81,12.21,12.29,19.11,12.29h0a18,18,0,0,0,5.86-1C63.9,79.46,70.16,66.06,70.78,58.1c.08-1,.16-2,.25-3C72,44.21,73.2,29.3,68.57,20.42,64.68,13,53.36,12.17,48.67,12.17Z"/><path class="cls-2" d="M41.11,47.81a1.68,1.68,0,1,1-1.69-1.68A1.67,1.67,0,0,1,41.11,47.81Z"/><path class="cls-2" d="M60.28,47.69A1.68,1.68,0,1,1,58.59,46,1.68,1.68,0,0,1,60.28,47.69Z"/><path class="cls-2" d="M52,56.27c-6-.13-19.41,2.24-18.92,11,4.38-2.19,11.31-2.71,16.36-2.7,4.46,0,12.32.07,15.91,3C66.08,59.42,60.18,56.87,52,56.27Z"/><path class="cls-2" d="M69,20.2c-4.73-9-20.92-9.67-30.32-7.37-12.07,3-16,17.22-15.5,31.36,4.63-2.62,7.34-8.58,8.57-13.4,3,4.94,11.82,6.47,17.13,6.18a55.89,55.89,0,0,0-4.31-3.77c2.8.41,5,1.6,8,1.8a41.41,41.41,0,0,0,8.47.18c-1.18-.92-2.57-1.67-3.79-2.59a39.69,39.69,0,0,0,8.38.37c-.24,3.18-.46,6.31,1.29,9.2a8.22,8.22,0,0,0,5.31,3.58C72.66,36.68,72.43,26.79,69,20.2Z"/><path class="cls-2" d="M24.82,57.32c1.72-.41,1.55-2.85,1.48-4.49-.17-4.27-.46-8.43-.87-12.65l-.26.14c-.57-1-1.31-.85-2-.28A71.56,71.56,0,0,0,24.82,57.32Z"/><path class="cls-2" d="M70.9,57c-1.72-.39-1.58-2.83-1.54-4.47.13-4.28.36-8.43.71-12.66l.27.13c.56-1,1.3-.86,2-.3A70.83,70.83,0,0,1,70.9,57Z"/><path class="cls-3" d="M52.26,50.76c.06,3-5.23,3.61-5.72.33"/><path class="cls-2" d="M49.3,53.75a3.07,3.07,0,0,1-3.23-2.59.47.47,0,0,1,.4-.54A.48.48,0,0,1,47,51a2.45,2.45,0,0,0,4.77-.25.49.49,0,0,1,.47-.49h0a.48.48,0,0,1,.48.47,3.13,3.13,0,0,1-3.12,3Z"/><path class="cls-2" d="M51.22,71.57a5.11,5.11,0,0,0-4.23.08l-.14.21c.26,2.24.08,4.61.25,6.84.12,1.56-.09,3.27-.1,4.91a17.57,17.57,0,0,0,4.76.08c-.07-1.85-.19-3.71-.14-5.58A29.77,29.77,0,0,0,51.22,71.57Z"/><path class="cls-2" d="M30.18,71.31C35.67,79.5,44.77,86.52,55.7,82.78c4.83-1.65,8.9-6.58,11.67-12-.31.2-.58.37-.76.5-1.53,1.13-2.6,2.48-4.33,3.35-5.16,2.59-11.83,2.57-17.42,1.65a38.7,38.7,0,0,1-9.66-2.72A32.44,32.44,0,0,1,31,71.29c-.39-.24-.8-.46-1.22-.68C29.89,70.84,30,71.09,30.18,71.31Z"/><path class="cls-2" d="M63.28,41.63c-.61-1.28-5.09-.67-6-.63-2.51.1-4.95.31-7.45.23-.93,0-2-.14-3-.13L45.44,41c-1.7-.35-14.59-.16-11.8,3.08,1.11,1.29,5.51.3,7.11.29s3.49,0,5.24-.11a12.29,12.29,0,0,1,1.23.08,28,28,0,0,0,4.09-.1c2.93,0,5.75-.21,8.65-.22,1.13,0,2.81.15,3.36-1A1.14,1.14,0,0,0,63.28,41.63Z"/></g></g></svg>