<svg xmlns="http://www.w3.org/2000/svg" viewBox="0 0 95.53 95.53"><defs><style>.cls-1{fill:#72c2ba;}.cls-2{fill:#00133a;}.cls-3{fill:#fff;}.cls-4{fill:none;stroke:#000;stroke-linecap:round;stroke-miterlimit:10;}</style></defs><title>avatar-9</title><g id="Layer_2" data-name="Layer 2"><g id="OBJECTS"><path class="cls-1" d="M95.05,47.76A47.29,47.29,0,1,1,47.76.48,47.29,47.29,0,0,1,95.05,47.76Z"/><path class="cls-2" d="M47.76,95.53A47.77,47.77,0,1,1,95.53,47.76,47.82,47.82,0,0,1,47.76,95.53ZM47.76,1A46.81,46.81,0,1,0,94.57,47.76,46.86,46.86,0,0,0,47.76,1Z"/><path class="cls-3" d="M21.14,44.7c-5.05-4.78-6.62,5.23-4.48,8.45,1.85,2.8,5.32,2.78,5.66-1.1"/><path class="cls-2" d="M19.75,55.6a4.4,4.4,0,0,1-3.49-2.19c-1.54-2.32-1.35-8,.85-9.87.69-.58,2.18-1.25,4.36.81a.49.49,0,0,1,0,.68.47.47,0,0,1-.67,0c-1.26-1.19-2.3-1.45-3.09-.78-1.69,1.42-2.08,6.49-.68,8.62a3.21,3.21,0,0,0,3.17,1.7c.91-.23,1.5-1.17,1.62-2.58a.49.49,0,0,1,.52-.43.48.48,0,0,1,.44.51c-.17,1.84-1,3.09-2.34,3.42A2.82,2.82,0,0,1,19.75,55.6Z"/><path class="cls-3" d="M74.38,44.7c5.06-4.78,6.62,5.23,4.49,8.45-1.86,2.8-5.32,2.78-5.66-1.1"/><path class="cls-2" d="M75.78,55.6a2.82,2.82,0,0,1-.71-.09c-1.33-.33-2.18-1.58-2.34-3.42a.48.48,0,0,1,1-.08c.13,1.41.72,2.35,1.62,2.58a3.19,3.19,0,0,0,3.17-1.7c1.41-2.13,1-7.2-.67-8.62-.79-.67-1.84-.41-3.09.78A.47.47,0,0,1,74,45a.49.49,0,0,1,0-.68c2.18-2.06,3.66-1.39,4.36-.81,2.2,1.86,2.39,7.55.85,9.87A4.4,4.4,0,0,1,75.78,55.6Z"/><path class="cls-3" d="M74,60.54c1-10.74,3.41-28-2.25-37.9-5.2-9.06-23.19-9.79-33.64-7.55-23.69,5.08-19.4,45.4-9.85,58.36,6,8.21,16.11,15.29,28.28,11.61C66.24,82.14,73.26,68.64,74,60.54Z"/><path class="cls-2" d="M50,86.54h0c-8.05,0-16.1-4.67-22.09-12.8-6.79-9.22-10.51-30.92-5.13-45.09C25.67,21,31,16.15,38,14.63a53.47,53.47,0,0,1,10.9-1.09c5.46,0,18.67.87,23.25,8.86,5.24,9.15,3.72,24.21,2.61,35.2-.1,1-.2,2-.29,3-.8,8.41-8,22-17.81,24.93A23.34,23.34,0,0,1,50,86.54Zm-1.06-72a53,53,0,0,0-10.7,1.06C31.38,17,26.48,21.54,23.66,29c-5.27,13.89-1.64,35.16,5,44.18C34.47,81.06,42.24,85.58,50,85.58h0a22.54,22.54,0,0,0,6.43-1c9.33-2.82,16.37-16.16,17.13-24.11.09-1,.19-2,.29-3,1.1-10.87,2.6-25.75-2.49-34.63C68.35,17.63,60,14.5,48.93,14.5Z"/><path class="cls-2" d="M71.94,48.19l-.13.28c-1.3,4-2,8.2-3.26,12.25-.5,1.61-1.17,4.61-2.44,6.69a1.5,1.5,0,0,1-.66.56c-2.26.7-3.46-1.14-4-2.79-1-3.13-1.47-7-6.47-6.71h0a20.14,20.14,0,0,0-2.83.22c-4.12.55-8.26.14-12.16,1.64-2.57,1-3.4,3.31-3.9,6C35.48,67.8,34.87,69.73,33,69s-2.38-2.65-2.93-4.22c-1.3-3.67-2.63-7.43-3.81-11.24-.65-2.09-1.41-3.94-2.18-6s-1.69-2.84-3.41-4.16c-.23,11.73,3.1,24,7.61,30.09,6,8.21,16.11,15.29,28.28,11.61C66.24,82.14,73.26,68.64,74,60.54c.47-5,1.23-11.33,1.35-17.71C73.16,44.38,73,45.92,71.94,48.19Z"/><path class="cls-3" d="M54.87,63.1a57.21,57.21,0,0,1-7.43.28c-2.26,0-4.74.73-5.22,3.3-.4,2.2.1,4.55.2,6.71s.68,4,2.88,4.86c2.46,1,5,.73,7.67.86,1.1,0,2.56.38,3.48-.36A4.12,4.12,0,0,0,57.94,76a37.86,37.86,0,0,0-.26-7.61c-.11-1.12-.3-2.33-.47-3.42s-.29-2-1.62-1.89a1.78,1.78,0,0,1-.4,0"/><path class="cls-2" d="M39.87,49.54A1.55,1.55,0,1,1,38.32,48,1.55,1.55,0,0,1,39.87,49.54Z"/><path class="cls-2" d="M62.5,49.54A1.55,1.55,0,1,1,61,48,1.55,1.55,0,0,1,62.5,49.54Z"/><path class="cls-2" d="M32.69,44.87a.52.52,0,0,1-.35-.14.49.49,0,0,1,0-.68c2.29-2.18,6.42-2.47,9.31-1.64a.47.47,0,1,1-.26.91c-2.57-.73-6.39-.49-8.39,1.42A.48.48,0,0,1,32.69,44.87Z"/><path class="cls-2" d="M65.38,44.87a.46.46,0,0,1-.33-.13c-2-1.91-5.82-2.15-8.39-1.42a.47.47,0,1,1-.27-.91c2.9-.83,7-.54,9.32,1.64a.49.49,0,0,1,0,.68A.49.49,0,0,1,65.38,44.87Z"/><path class="cls-2" d="M47.88,57.59a4.25,4.25,0,0,1-1.69-.31c-.67-.3-1.69-1.11-1-3.1a.46.46,0,0,1,.6-.29.48.48,0,0,1,.3.61c-.47,1.31,0,1.72.48,1.91,1.63.73,5.12-.44,5.65-1.41.06-.1.12-.21-.18-.41a.48.48,0,0,1,.53-.8,1.2,1.2,0,0,1,.49,1.67C52.46,56.58,49.94,57.59,47.88,57.59Z"/><path class="cls-4" d="M43.9,67.48c4,0,7.86-.48,11.79-.35a1.85,1.85,0,0,1,0,.47"/><path class="cls-4" d="M43.93,67.48c0,.29.08.52.08.8"/><path class="cls-2" d="M37,54.57a10.12,10.12,0,0,1-4.6-.9c-2.2-1.13-2-3.72-1.95-5.27.17-2.74,2.08-2.88,3.93-3l.77-.06c1-.09,2-.23,2.94-.37s2-.28,2.95-.37c2.76-.27,3.91.31,4.41,2.71l.4,1.66c0,.23,0,.48,0,.74.06,1.14.14,2.56-.88,3.4-.73.6-2.45.9-4,1.13l-.1,0A26.36,26.36,0,0,1,37,54.57Zm5.26-9.11c-.34,0-.71,0-1.13.07-1,.09-1.94.23-2.91.37s-2,.28-3,.37l-.79.07c-2,.15-2.93.29-3,2.12s-.09,3.58,1.43,4.36c1.68.86,4.25,1,7.91.47h.1a11,11,0,0,0,3.54-.93c.64-.53.59-1.59.53-2.61,0-.25,0-.5,0-.73l-.37-1.51C44.16,45.75,43.53,45.46,42.27,45.46Z"/><path class="cls-2" d="M62.12,54.57a26.35,26.35,0,0,1-3.88-.33l-.1,0c-1.55-.23-3.27-.53-4-1.13-1-.84-1-2.26-.89-3.4,0-.26,0-.51,0-.74v-.12l.39-1.56c.42-2,1.31-2.76,3.19-2.76a11.09,11.09,0,0,1,1.22.07c1,.09,2,.23,2.95.37s2,.28,2.94.37l.76.06c1.86.14,3.77.28,3.94,3,.09,1.55.25,4.14-2,5.27A10.17,10.17,0,0,1,62.12,54.57ZM54.23,49c0,.23,0,.48,0,.73-.06,1-.11,2.08.53,2.61a10.89,10.89,0,0,0,3.54.93h.1c3.66.56,6.23.39,7.91-.47,1.52-.78,1.55-2.51,1.43-4.36s-1-2-3-2.12l-.78-.07c-1-.09-2-.23-3-.37S59,45.62,58,45.53c-.42,0-.8-.07-1.13-.07-1.27,0-1.89.29-2.26,2Z"/><path class="cls-4" d="M45.38,49a19,19,0,0,1,3.95-.45,19.41,19.41,0,0,1,4.44.23"/><path class="cls-4" d="M68.33,49.19c1.15-1.11,2.49-2,3.67-3.16.62-.59,1.26-1.21,1.87-1.76.3-.26.65-.54.92-.79s.9-.74.48-.55"/><path class="cls-4" d="M20.67,43.73c1.33-.82,4.19,2.06,5.26,2.81a19,19,0,0,0,2.44,1.65c.73.36,2,.7,2.42,1.23"/></g></g></svg>