<svg xmlns="http://www.w3.org/2000/svg" viewBox="0 0 95.53 95.53"><defs><style>.cls-1{fill:#209baa;}.cls-2{fill:#00133a;}.cls-3{fill:#fff;}</style></defs><title>avatar-1</title><g id="Layer_2" data-name="Layer 2"><g id="OBJECTS"><circle class="cls-1" cx="47.76" cy="47.76" r="47.29" transform="translate(-7.05 87.24) rotate(-80.76)"/><path class="cls-2" d="M47.76,95.53A47.77,47.77,0,1,1,95.53,47.76,47.82,47.82,0,0,1,47.76,95.53ZM47.76,1A46.81,46.81,0,1,0,94.57,47.76,46.86,46.86,0,0,0,47.76,1Z"/><path class="cls-3" d="M21.14,45c-5.05-4.77-6.62,5.23-4.48,8.45,1.85,2.8,5.32,2.78,5.66-1.1"/><path class="cls-2" d="M19.75,55.85a4.41,4.41,0,0,1-3.49-2.18c-1.54-2.32-1.35-8,.85-9.87.69-.59,2.18-1.26,4.36.8a.49.49,0,0,1,0,.68.47.47,0,0,1-.67,0c-1.26-1.19-2.3-1.45-3.09-.77C16,45.94,15.65,51,17.05,53.14a3.21,3.21,0,0,0,3.17,1.7c.91-.23,1.5-1.17,1.62-2.58a.48.48,0,0,1,1,.09c-.17,1.83-1,3.08-2.34,3.42A2.81,2.81,0,0,1,19.75,55.85Z"/><path class="cls-3" d="M74.38,45c5.06-4.77,6.62,5.23,4.49,8.45-1.86,2.8-5.32,2.78-5.66-1.1"/><path class="cls-2" d="M75.78,55.85a2.81,2.81,0,0,1-.71-.08c-1.33-.34-2.18-1.59-2.34-3.42a.48.48,0,0,1,1-.09c.13,1.41.72,2.35,1.62,2.58a3.19,3.19,0,0,0,3.17-1.7c1.41-2.12,1-7.2-.67-8.61-.79-.67-1.84-.42-3.09.77a.47.47,0,0,1-.67,0,.49.49,0,0,1,0-.68c2.18-2.06,3.66-1.39,4.36-.8,2.2,1.85,2.39,7.55.85,9.87A4.41,4.41,0,0,1,75.78,55.85Z"/><path class="cls-3" d="M74,60.8c1-10.74,3.41-28-2.25-37.91-5.2-9.06-23.19-9.79-33.64-7.54-23.69,5.08-19.4,45.39-9.85,58.36,6,8.2,16.11,15.28,28.28,11.61C66.24,82.4,73.26,68.89,74,60.8Z"/><path class="cls-2" d="M50,86.79h0c-8.05,0-16.1-4.67-22.09-12.8-6.79-9.22-10.51-30.92-5.13-45.09,2.9-7.65,8.18-12.5,15.26-14a53.49,53.49,0,0,1,10.9-1.08c5.46,0,18.67.86,23.25,8.86,5.24,9.15,3.72,24.2,2.61,35.19-.1,1-.2,2-.29,3-.8,8.41-8,22-17.81,24.93A23,23,0,0,1,50,86.79Zm-1.06-72a53,53,0,0,0-10.7,1.06c-6.85,1.47-11.75,6-14.57,13.43-5.27,13.9-1.64,35.16,5,44.18C34.47,81.31,42.24,85.83,50,85.83h0a22.2,22.2,0,0,0,6.43-1c9.33-2.81,16.37-16.16,17.13-24.11.09-1,.19-2,.29-3,1.1-10.87,2.6-25.75-2.49-34.63C68.35,17.88,60,14.75,48.93,14.75Z"/><path class="cls-2" d="M39.87,49.79a1.55,1.55,0,1,1-1.55-1.55A1.54,1.54,0,0,1,39.87,49.79Z"/><path class="cls-2" d="M62.5,49.79A1.55,1.55,0,1,1,61,48.24,1.54,1.54,0,0,1,62.5,49.79Z"/><path class="cls-2" d="M32.69,47a.49.49,0,0,1-.35-.15.47.47,0,0,1,0-.67c2.29-2.18,6.42-2.48,9.31-1.65a.48.48,0,0,1,.33.59.48.48,0,0,1-.59.33c-2.57-.74-6.39-.49-8.39,1.42A.53.53,0,0,1,32.69,47Z"/><path class="cls-2" d="M65.38,47a.51.51,0,0,1-.33-.13c-2-1.91-5.82-2.16-8.39-1.42a.48.48,0,0,1-.59-.33.47.47,0,0,1,.32-.59c2.9-.83,7-.53,9.32,1.65a.47.47,0,0,1,0,.67A.46.46,0,0,1,65.38,47Z"/><path class="cls-2" d="M67,69.32a18.69,18.69,0,0,1-3.22,3.83A12.57,12.57,0,0,0,63.46,71c-1.18-4.57-1-11.19-8.27-11.45C37.11,58.93,39,66.06,38.1,75.44a37,37,0,0,1-9.54-9.19C25.83,62.48,25.3,55.68,21.79,53l-.5.68c1.15,8.19,3.77,15.68,7,20.06,6,8.2,16.11,15.28,28.28,11.61C66.24,82.4,73.26,68.89,74,60.8c.26-2.68.6-5.76.87-9C73.07,54.2,68.75,66.57,67,69.32Zm-8.12,7c-.51,1.16-2.81,2.59-4,3-2.23.84-6,.15-8.18-.43-3.29-.88-4-2.21-3.7-5.49.25-2.5.07-6.19,1.49-8.34s5.09-1.7,7.36-1.7h.85c4.45,0,4.76,3.85,5.45,7.31C58.54,72.29,59.62,74.68,58.91,76.3Z"/><path class="cls-2" d="M50.42,69.54c-2.45,0-5.06-.35-5.89-.84a.48.48,0,1,1,.48-.82c1.15.67,7.32,1.08,9.19.21a.73.73,0,0,0,.32-.22.47.47,0,0,1,.55-.39.49.49,0,0,1,.39.56,1.33,1.33,0,0,1-.86.92A11.48,11.48,0,0,1,50.42,69.54Z"/><path class="cls-2" d="M48.35,72.38a31.86,31.86,0,0,0,.7,8.14,38.89,38.89,0,0,0,4,0c0-1.27-.7-2.54-.83-3.89s-.33-3.22-.34-4.25"/><path class="cls-2" d="M48.27,58.08a3.77,3.77,0,0,1-2.81-.82,2,2,0,0,1-.41-1.68.48.48,0,0,1,.94.14,1.06,1.06,0,0,0,.18.9c.52.58,2,.52,3,.48l.72,0h.2c.79,0,2.64,0,3-.59a.6.6,0,0,0,0-.5.47.47,0,0,1-.44-.4.46.46,0,0,1,.11-.39.53.53,0,0,1,.29-.28.63.63,0,0,1,.53,0l.14.07.07.14A1.79,1.79,0,0,1,53.91,57c-.65,1-2.64,1-3.83,1h-.19a5.22,5.22,0,0,0-.68,0C48.92,58.07,48.59,58.08,48.27,58.08Z"/><path class="cls-2" d="M79.19,35.24c-.15-2-1.7-3.45-1.91-5.28-.31-2.58.69-4.65-.75-7.17-.46-.8-1.66-1.64-1.91-2.31-.33-.9,0-2.07-.37-3-1-2.87-3.48-3.82-6.26-4.37a1,1,0,0,0-.95.4,14.48,14.48,0,0,0-5.93-3.25,9.84,9.84,0,0,0-3.75-.57c-.78.12-1.43.89-2.1.95-1.76.16-4.12-1.24-6.27-1.34a10.63,10.63,0,0,0-4.13.34c-.58.25-1.15,1-1.6,1.18-1.29.44-3.37-.39-5.12-.61-.93-.11-2.65-.66-3.57-.34-.7.25-1,1.21-1.46,1.39-1.47.52-2.79-1.37-4.86.14-1.32,1-3.26,3.59-3.2,5.29-2.66.31-4.33.35-5.51,3-.94,2.09-1.56,5,.4,6.65-3.74,1.29-2.79,6.37-.81,8.79-4.28,2.57,0,6.66.64,9.86.7,3.5-.79,10.2,3.42,11.82l1-.58c-.93-3.54-2.34-8.41-2.15-12.35,3.67-.45,4.12-4.09,3.23-7,3.83-.57,4-5.12,4.18-8.17,1.8-.19,2.8,1.25,4.76.54s2.72-2.26,3.6-4.15c1.79.39,2.36,3.3,4.91,3.4,3,.11,4-3,5.68-4.59,1.34,1.39,1.57,3.42,3.79,4.26a6.5,6.5,0,0,0,3.76.13c1.62-.38,2.71-2.21,4.18-2.46,1.27-.22,1,.11,1.52,1.52.49,1.2.76,2.12,1.94,2.84,2.09,1.28,4,.42,6.23.22-.17,2.43-1.06,6.93,2.47,7,.11,1.31-.67,2.62-.35,4S73.23,43.23,73.3,45c.12,2.81-1.09,10.75-.86,13.5a6.39,6.39,0,0,0,2.27,0C75.29,55.6,76.13,47,77.1,44.4A18.5,18.5,0,0,0,78.24,40C78.45,38.55,79.31,36.91,79.19,35.24Z"/></g></g></svg>