<svg xmlns="http://www.w3.org/2000/svg" viewBox="0 0 95.53 95.53"><defs><style>.cls-1{fill:#ff340d;}.cls-2{fill:#00133a;}.cls-3{fill:#fff;}.cls-4{fill:#72c2ba;}</style></defs><title>avatar-12</title><g id="Layer_2" data-name="Layer 2"><g id="OBJECTS"><path class="cls-1" d="M95.05,47.76A47.29,47.29,0,1,1,47.76.48,47.29,47.29,0,0,1,95.05,47.76Z"/><path class="cls-2" d="M47.76,95.53A47.77,47.77,0,1,1,95.53,47.76,47.82,47.82,0,0,1,47.76,95.53ZM47.76,1A46.81,46.81,0,1,0,94.57,47.76,46.86,46.86,0,0,0,47.76,1Z"/><path class="cls-2" d="M78.78,62.28a50.85,50.85,0,0,1-1.91-11.45c-.47-6.82-1.2-13.44-2.22-20.2-1.05-6.94-3-13.19-9.19-16.89a23.71,23.71,0,0,0-17.7-2.45,23.69,23.69,0,0,0-17.69,2.45c-6.24,3.7-8.14,10-9.19,16.89-1,6.76-1.75,13.38-2.23,20.2a50.29,50.29,0,0,1-1.9,11.45c-.77,2.5-1.77,7.13-4.28,8.46,1.56,2.17,5.66,3.19,8.06,4.31a22.27,22.27,0,0,0,8.79,2.34c6.14.28,12.53,2.41,17.18-2.9a20.51,20.51,0,0,0,1.26-1.65A20.62,20.62,0,0,0,49,74.49c4.65,5.31,11,3.18,17.18,2.9A22.32,22.32,0,0,0,75,75.05c2.39-1.12,6.5-2.14,8.06-4.31C80.54,69.41,79.55,64.78,78.78,62.28Z"/><path class="cls-3" d="M28,48.16c-5.4-5.11-7.09,5.6-4.8,9.05,2,3,5.7,3,6.06-1.18"/><path class="cls-2" d="M26.53,59.8a4.7,4.7,0,0,1-3.71-2.33C21.18,55,21.38,48.92,23.73,47c.73-.62,2.31-1.32,4.62.86l-.66.7c-1.35-1.28-2.48-1.56-3.35-.83-1.81,1.52-2.24,7-.72,9.27.92,1.38,2.29,2.12,3.42,1.83s1.63-1.27,1.77-2.79l.94.09c-.17,2-1.07,3.27-2.47,3.63A3.2,3.2,0,0,1,26.53,59.8Z"/><path class="cls-3" d="M68,48.16c5.41-5.11,7.09,5.6,4.8,9.05-2,3-5.7,3-6.06-1.18"/><path class="cls-2" d="M69.44,59.8a3.2,3.2,0,0,1-.75-.09c-1.4-.36-2.31-1.68-2.48-3.63l1-.09c.13,1.52.77,2.54,1.76,2.79s2.51-.45,3.42-1.83c1.52-2.29,1.09-7.75-.72-9.27-.87-.73-2-.45-3.35.83l-.66-.7c2.32-2.18,3.89-1.48,4.63-.86,2.34,2,2.54,8,.9,10.52A4.7,4.7,0,0,1,69.44,59.8Z"/><path class="cls-3" d="M69.1,58.55c.83-9.6,2.76-25-1.83-33.89-4.22-8.1-18.83-8.75-27.32-6.75C20.71,22.45,24.19,58.5,32,70.09c4.91,7.34,13.08,13.66,23,10.38C62.78,77.86,68.48,65.78,69.1,58.55Z"/><path class="cls-2" d="M49.58,81.84h0c-6.58,0-13.15-4.19-18-11.48-5.72-8.56-8.66-29-3.74-41.51,2.47-6.27,6.51-10.1,12-11.4a39.58,39.58,0,0,1,8.87-1c4.46,0,15.24.78,19,8,4.26,8.19,3,21.65,2.13,31.48q-.13,1.39-.24,2.67c-.65,7.53-6.49,19.67-14.52,22.33A17.26,17.26,0,0,1,49.58,81.84Zm-.87-64.41a38.79,38.79,0,0,0-8.65.95c-5.2,1.22-9,4.86-11.36,10.82-4.83,12.27-1.95,32.26,3.64,40.62,4.71,7,11,11.06,17.24,11.06A16.54,16.54,0,0,0,54.76,80C62.31,77.51,68,65.6,68.62,58.51c.08-.85.16-1.75.25-2.68.88-9.71,2.1-23-2-30.95C63.34,18.16,53,17.43,48.71,17.43Z"/><path class="cls-2" d="M40.71,51.9a1.66,1.66,0,1,1-1.66-1.65A1.66,1.66,0,0,1,40.71,51.9Z"/><path class="cls-2" d="M58.58,51.9a1.66,1.66,0,1,1-1.66-1.65A1.66,1.66,0,0,1,58.58,51.9Z"/><path class="cls-2" d="M47.9,62.75a5.76,5.76,0,0,1-3.23-1.17.47.47,0,0,1-.07-.67.48.48,0,0,1,.67-.07,4.28,4.28,0,0,0,3.17.88.92.92,0,0,0,.67-.65.48.48,0,0,1,.6-.31.46.46,0,0,1,.31.59,1.89,1.89,0,0,1-1.3,1.29A3.18,3.18,0,0,1,47.9,62.75Z"/><path class="cls-2" d="M34,48.76a.46.46,0,0,1-.27-.09.47.47,0,0,1-.12-.66,3.14,3.14,0,0,1,2.06-1.22l.56-.16a7.82,7.82,0,0,1,2.23-.41h0a9.31,9.31,0,0,1,4.23,1.36.48.48,0,1,1-.45.84,8.6,8.6,0,0,0-3.78-1.25,6.08,6.08,0,0,0-2,.37L36,47.7a2.36,2.36,0,0,0-1.58.85A.46.46,0,0,1,34,48.76Z"/><path class="cls-2" d="M61.16,48.76a.48.48,0,0,1-.4-.21,2.26,2.26,0,0,0-1.52-.84l-.58-.17a8,8,0,0,0-2-.37,8.6,8.6,0,0,0-3.78,1.25.48.48,0,1,1-.45-.84,9.31,9.31,0,0,1,4.22-1.36h0a7.75,7.75,0,0,1,2.22.41l.52.14A3.24,3.24,0,0,1,61.55,48a.48.48,0,0,1-.12.66A.48.48,0,0,1,61.16,48.76Z"/><path class="cls-2" d="M47.64,69.09c-3.63,0-7.19-1-9.22-2.77a.48.48,0,0,1-.06-.67.49.49,0,0,1,.68-.06c2.3,2,7,3,11.16,2.36,3.07-.45,5.39-1.68,6.54-3.46a.48.48,0,0,1,.8.52c-1.29,2-3.85,3.39-7.2,3.88A18.66,18.66,0,0,1,47.64,69.09Z"/><path class="cls-2" d="M40,17.91c-12.17,2.87-15.24,18.35-13.9,32.28l.34.6c1.65,0,2.82-2.59,3.38-3.92.27-.63.42-2.46.81-2.83s2.31-.54,3-.87C38.2,40.79,40,35.89,40.5,31c5,7.38,15.76,8.14,23.79,8A11.11,11.11,0,0,0,70,48.1c.53-8.25.44-17.39-2.7-23.44C63.05,16.56,48.44,15.91,40,17.91Z"/><path class="cls-4" d="M70.18,38.93a43.89,43.89,0,0,0-1.24-9.74,27.92,27.92,0,0,0-4.47-3.8A38.41,38.41,0,0,0,51,19.73a27,27,0,0,0-15.07,1.62A18.38,18.38,0,0,0,30,25.43,33,33,0,0,0,26,39.34l.27-.32c1.66-1.85,3.14-3.94,4.9-5.8A17.31,17.31,0,0,1,43,27.37c8.4-.6,16.68.21,23,6.47A32.57,32.57,0,0,1,70.18,38.93Z"/></g></g></svg>