<svg xmlns="http://www.w3.org/2000/svg" viewBox="0 0 95.53 95.53"><defs><style>.cls-1{fill:#ffae65;}.cls-2{fill:#00133a;}.cls-3{fill:#fff;}</style></defs><title>avatar-10</title><g id="Layer_2" data-name="Layer 2"><g id="OBJECTS"><path class="cls-1" d="M95.05,47.76A47.29,47.29,0,1,1,47.76.48,47.29,47.29,0,0,1,95.05,47.76Z"/><path class="cls-2" d="M47.76,95.53A47.77,47.77,0,1,1,95.53,47.76,47.82,47.82,0,0,1,47.76,95.53ZM47.76,1A46.81,46.81,0,1,0,94.57,47.76,46.86,46.86,0,0,0,47.76,1Z"/><path class="cls-2" d="M39.93,11.72c-9.62,2.6-11.6,11.46-16.67,18.55-1.16,1.61-3,2.55-4.15,4.07-1.52,2.07-1.07,3.22-1.51,5.72-.85,4.89-4.31,8.86-3.08,14.32.55,2.45,2.69,3.59,3.09,5.72s-1.52,4.59-1.72,6.59c-.65,6.38,4,5.58,7.5,8.52,1.62,1.35,1.61,4,3.36,5.22,2.12,1.45,4.93,0,7.17,0,5.69,0,7.2,4.8,12.09,5.94,5.63,1.31,9.13-4.7,14-6.24,3.9-1.25,10.93,2,13.11-2,1.1-2-.28-4.63,1-6.5s3.68-1.68,5.15-2.87c4.6-3.72.1-7.09-.66-11.5-.72-4.15.15-7.74-.92-11.7-1-3.72-.81-6.74-2.58-10.35-2.87-5.83-2.5-19.61-17-22.81"/><path class="cls-3" d="M26.44,42c-5.05-4.78-6.62,5.23-4.48,8.45,1.85,2.8,5.32,2.78,5.66-1.1"/><path class="cls-2" d="M25.05,52.88a4.4,4.4,0,0,1-3.49-2.19c-1.54-2.32-1.35-8,.85-9.87.69-.58,2.18-1.25,4.36.81l-.65.69c-1.26-1.18-2.29-1.44-3.09-.77C21.34,43,21,48,22.36,50.16a3.2,3.2,0,0,0,3.16,1.71c.91-.23,1.5-1.17,1.63-2.58l1,.08c-.16,1.84-1,3.08-2.34,3.42A2.82,2.82,0,0,1,25.05,52.88Z"/><path class="cls-3" d="M69.2,42c5-4.78,6.62,5.23,4.49,8.45-1.86,2.8-5.33,2.78-5.67-1.1"/><path class="cls-2" d="M70.59,52.88a2.74,2.74,0,0,1-.7-.09c-1.33-.34-2.18-1.58-2.34-3.42l1-.08c.12,1.41.71,2.35,1.62,2.58a3.21,3.21,0,0,0,3.17-1.71c1.41-2.12,1-7.19-.67-8.61-.8-.67-1.84-.41-3.09.77l-.66-.69c2.18-2.06,3.67-1.39,4.36-.81,2.2,1.85,2.39,7.55.85,9.87A4.38,4.38,0,0,1,70.59,52.88Z"/><path class="cls-3" d="M69.39,52c.84-9.42,2.82-24.57-1.87-33.24-4.3-8-19.21-8.59-27.86-6.63C20,16.61,23.59,52,31.5,63.35c5,7.2,13.34,13.4,23.42,10.18C62.94,71,68.75,59.12,69.39,52Z"/><path class="cls-2" d="M49.48,74.88h0c-6.7,0-13.4-4.1-18.37-11.26-5.83-8.37-8.84-27.79-4-40.28C29.6,16.92,33.78,13,39.55,11.69a42.38,42.38,0,0,1,9.05-.95c4.54,0,15.52.76,19.34,7.81,4.34,8,3.08,21.25,2.17,30.89-.09.92-.17,1.79-.25,2.63-.66,7.39-6.61,19.3-14.8,21.92A18.37,18.37,0,0,1,49.48,74.88ZM48.6,11.69a41.06,41.06,0,0,0-8.84.93c-5.44,1.23-9.39,5-11.76,11.06-4.66,12-1.68,31.38,3.89,39.39C36.69,70,43.1,73.93,49.48,73.93h0a17.46,17.46,0,0,0,5.29-.85c7.7-2.46,13.52-14.14,14.14-21.1.08-.83.16-1.71.25-2.63.9-9.52,2.14-22.57-2.06-30.35C64.62,14.42,57.71,11.69,48.6,11.69Z"/><path class="cls-2" d="M41.38,45.47a1.55,1.55,0,1,1-1.55-1.55A1.54,1.54,0,0,1,41.38,45.47Z"/><path class="cls-2" d="M58.07,45.47a1.55,1.55,0,1,1-1.55-1.55A1.54,1.54,0,0,1,58.07,45.47Z"/><path class="cls-2" d="M67.52,19c-4.3-8.17-19.21-8.83-27.86-6.81C24.39,15.75,23.16,38.57,27.09,54c3-1.08,2.39-5.67,2.49-8.33a7.17,7.17,0,0,0,3.81-5.5c3,.08,4.35-3.58,6.39-4.75,2.25-1.29,4.07-.67,4.29-4.1,2.7.49,5.27-.06,6.72-2.59,1.15,1.87,2.68,4.33,5.29,4.27-1.77,3.77,3,5.56,5.79,5.64-.52,2.51,1.75,5.59,4.42,4.88-.07,1.91,2.16,4.61,3.43,6C70.6,39.91,71.65,26.86,67.52,19Z"/><path class="cls-2" d="M48.51,62.22a13.87,13.87,0,0,1-10.74-4.88.48.48,0,0,1,.75-.6A13,13,0,0,0,50,61.18a10.6,10.6,0,0,0,8.66-5.78.48.48,0,0,1,.64-.23.49.49,0,0,1,.22.64,11.52,11.52,0,0,1-9.41,6.32A14.84,14.84,0,0,1,48.51,62.22Z"/><path class="cls-2" d="M48.18,55.21H48a2.73,2.73,0,0,1-2.67-2.9.49.49,0,0,1,.49-.47.48.48,0,0,1,.46.49A1.78,1.78,0,0,0,48,54.25a1.94,1.94,0,0,0,2.2-1.58.47.47,0,1,1,.94.11A2.85,2.85,0,0,1,48.18,55.21Z"/><path class="cls-2" d="M70.28,42.69a3.73,3.73,0,0,0-3-1.43L66,42.43c-1.28,1.67.65,8.91,3.4,10.21C69.7,49.71,70,46.29,70.28,42.69Z"/><path class="cls-2" d="M36.3,42.12a.48.48,0,0,1-.44-.29.49.49,0,0,1,.25-.63c2-.86,4.67-1.66,7.36-.11a.48.48,0,0,1,.18.65.49.49,0,0,1-.66.17c-1.81-1-3.82-1-6.5.17A.43.43,0,0,1,36.3,42.12Z"/><path class="cls-2" d="M53.06,42.12a.48.48,0,0,1-.44-.29.49.49,0,0,1,.25-.63c2-.87,4.67-1.66,7.36-.11a.48.48,0,0,1,.18.65.49.49,0,0,1-.66.17c-1.81-1-3.82-1-6.5.17A.43.43,0,0,1,53.06,42.12Z"/></g></g></svg>