<svg xmlns="http://www.w3.org/2000/svg" viewBox="0 0 95.53 95.53"><defs><style>.cls-1{fill:#007096;}.cls-2{fill:#00133a;}.cls-3{fill:#fff;}</style></defs><title>avatar-8</title><g id="Layer_2" data-name="Layer 2"><g id="OBJECTS"><path class="cls-1" d="M95.05,47.76A47.29,47.29,0,1,1,47.76.48,47.29,47.29,0,0,1,95.05,47.76Z"/><path class="cls-2" d="M47.76,95.53A47.77,47.77,0,1,1,95.53,47.76,47.82,47.82,0,0,1,47.76,95.53ZM47.76,1A46.81,46.81,0,1,0,94.57,47.76,46.86,46.86,0,0,0,47.76,1Z"/><path class="cls-3" d="M23.28,47.63c-6.06-5.73-7.94,6.27-5.38,10.14,2.23,3.36,6.39,3.33,6.79-1.32"/><path class="cls-2" d="M21.61,60.61A5.2,5.2,0,0,1,17.5,58c-1.83-2.76-1.6-9.52,1-11.72.8-.68,2.54-1.45,5.1,1L23,48c-1.54-1.46-2.83-1.77-3.83-.93-2.2,1.85-2.4,8.08-.82,10.46,1,1.58,2.6,2.41,3.9,2.09,1.13-.29,1.87-1.45,2-3.18l1,.08c-.19,2.16-1.19,3.63-2.73,4A3.37,3.37,0,0,1,21.61,60.61Z"/><path class="cls-3" d="M69.76,47.89c6.06-5.72,7.94,6.28,5.38,10.14-2.23,3.36-6.39,3.33-6.8-1.32"/><path class="cls-2" d="M71.43,60.88a3.31,3.31,0,0,1-.83-.1c-1.55-.4-2.54-1.86-2.73-4l.95-.09c.15,1.74.89,2.89,2,3.18,1.29.33,2.86-.51,3.9-2.08,1.58-2.38,1.37-8.61-.82-10.46-1-.84-2.29-.53-3.84.93l-.65-.69c2.56-2.42,4.29-1.65,5.1-1,2.61,2.2,2.83,9,1,11.72A5.21,5.21,0,0,1,71.43,60.88Z"/><path class="cls-3" d="M23.73,54.05c.45,14.12,13.75,32,29.46,27.2,22.47-6.84,24.08-45.47,12.46-61.39C54.76,5,33.52,11.39,27.47,26.65c-3,7.6-4.89,21-3.74,27.4"/><path class="cls-2" d="M48,82.51h0c-13.41,0-24.3-15.29-24.71-28.44-1.15-6.36.68-19.8,3.77-27.59,3.63-9.15,12.86-15.54,22.45-15.54A20.16,20.16,0,0,1,66,19.58c7.34,10,9.36,29,4.61,43.26-2.31,6.91-7.19,15.78-17.31,18.86A18.39,18.39,0,0,1,48,82.51Zm1.51-70.62A23.84,23.84,0,0,0,27.91,26.83c-3,7.66-4.84,20.85-3.71,27.14C24.61,66.76,35.08,81.56,48,81.56h0a17.49,17.49,0,0,0,5.08-.77c9.74-3,14.45-11.56,16.68-18.25,4.66-14,2.7-32.58-4.47-42.4A19.22,19.22,0,0,0,49.48,11.89Z"/><path class="cls-2" d="M51.42,11c10.15,12.47-1.11,21.62-11.65,26.92C27.59,44,25.07,56.3,25.26,69.05a46.92,46.92,0,0,0,3,15.3C18.85,78.89,18.78,58.82,19,49.43,19.39,36.06,21,20.69,34,13.84A31.4,31.4,0,0,1,51.42,11"/><path class="cls-2" d="M50.56,11.53a46.35,46.35,0,0,0,2.83,15.09c2.09,5.05,6.8,6.24,9.78,10.78,5.35,8.15,5.21,22.63,5.48,32.3.14,5,.06,9.91-1.3,14.53,6.31-7.8,6.5-22.9,6.78-32.76.3-10.83.47-24.9-6.48-33.34-3.86-4.68-10.34-6.7-16.23-7.16"/><circle class="cls-2" cx="39.12" cy="52.09" r="1.86"/><path class="cls-2" d="M39.7,56.93A9,9,0,0,1,32.06,52a23.66,23.66,0,0,1-1.59-3.82.45.45,0,0,1,.08-.43.43.43,0,0,1,.4-.19c1.37.07,2.85.18,4.36.29a92,92,0,0,0,10.16.37.48.48,0,0,1,.35.13.49.49,0,0,1,.15.34c.09,2.8-.61,5.06-2,6.51A5.82,5.82,0,0,1,39.7,56.93Zm-8.1-8.38a23.12,23.12,0,0,0,1.3,3A8.07,8.07,0,0,0,39.7,56a4.83,4.83,0,0,0,3.57-1.45A7.51,7.51,0,0,0,45,49.2c-2.83.1-6.38-.16-9.78-.4Z"/><path class="cls-2" d="M55.08,52.09a1.86,1.86,0,1,0,1.86-1.86A1.86,1.86,0,0,0,55.08,52.09Z"/><path class="cls-2" d="M56.36,56.93a5.78,5.78,0,0,1-4.25-1.73c-1.41-1.45-2.11-3.7-2-6.51a.49.49,0,0,1,.15-.34.47.47,0,0,1,.35-.13,89.57,89.57,0,0,0,10.16-.37c1.51-.11,3-.22,4.36-.29a.43.43,0,0,1,.4.19.45.45,0,0,1,.08.43A23.66,23.66,0,0,1,64,52a9,9,0,0,1-7.64,4.93ZM51,49.2a7.51,7.51,0,0,0,1.75,5.33A4.83,4.83,0,0,0,56.36,56h0a8.07,8.07,0,0,0,6.8-4.43,23.12,23.12,0,0,0,1.3-3l-3.64.25c-2.88.21-5.86.42-8.43.42h0Z"/><path class="cls-2" d="M51,52.65a.44.44,0,0,1-.36-.17c-1.26-1.5-3.51-1.45-5.08-.62a.48.48,0,0,1-.65-.2.48.48,0,0,1,.2-.64c1.91-1,4.68-1,6.26.85a.48.48,0,0,1-.06.67A.45.45,0,0,1,51,52.65Z"/><path class="cls-2" d="M64.1,51.2a.46.46,0,0,1-.4-.23.48.48,0,0,1,.15-.66,14.22,14.22,0,0,1,2.6-1.17,10.12,10.12,0,0,0,2.87-1.42.48.48,0,0,1,.61.74A11.06,11.06,0,0,1,66.78,50a14.56,14.56,0,0,0-2.43,1.09A.44.44,0,0,1,64.1,51.2Z"/><path class="cls-2" d="M32,51.26a.43.43,0,0,1-.19,0c-.87-.39-1.82-.74-2.73-1.08a34.09,34.09,0,0,1-4-1.69.48.48,0,1,1,.45-.85,31.75,31.75,0,0,0,3.92,1.65c.93.34,1.89.7,2.79,1.1a.48.48,0,0,1,.24.63A.47.47,0,0,1,32,51.26Z"/><path class="cls-2" d="M49.61,61a.48.48,0,0,1-.47-.4,1.09,1.09,0,0,0-.84-.88,3,3,0,0,0-2.72.72.48.48,0,1,1-.7-.65,3.92,3.92,0,0,1,3.69-1,2,2,0,0,1,1.51,1.64.47.47,0,0,1-.39.55Z"/><path class="cls-2" d="M48.57,68.74c-.9,0-1.79,0-2.64-.11-4.66-.44-8-1.88-9.15-4A.49.49,0,0,1,37,64a.47.47,0,0,1,.65.19c1,1.77,4.12,3.07,8.4,3.46,5.4.5,10.72-.64,12.38-2.65a.48.48,0,1,1,.73.61C57.3,67.85,52.79,68.74,48.57,68.74Z"/><path class="cls-2" d="M43.19,46.45c-1.09,0-2.22-.07-3.42-.13a44.19,44.19,0,0,0-5.64-.08.48.48,0,0,1-.07-1,44.35,44.35,0,0,1,5.77.08c1.24.06,2.41.13,3.53.12h0a.49.49,0,0,1,.48.48.48.48,0,0,1-.48.48Z"/><path class="cls-2" d="M61.4,46.45c-1.09,0-2.22-.07-3.42-.13a44.19,44.19,0,0,0-5.64-.08.48.48,0,0,1-.07-1,44.35,44.35,0,0,1,5.77.08c1.24.06,2.41.13,3.52.12h0a.48.48,0,0,1,0,1Z"/></g></g></svg>