<svg xmlns="http://www.w3.org/2000/svg" viewBox="0 0 95.53 95.53"><defs><style>.cls-1{fill:#72c2ba;}.cls-2{fill:#00133a;}.cls-3{fill:#fff;}</style></defs><title>avatar-3</title><g id="Layer_2" data-name="Layer 2"><g id="OBJECTS"><circle class="cls-1" cx="47.76" cy="47.76" r="47.29" transform="translate(-9.65 12.18) rotate(-13.21)"/><path class="cls-2" d="M47.76,95.53A47.77,47.77,0,1,1,95.53,47.76,47.82,47.82,0,0,1,47.76,95.53ZM47.76,1A46.81,46.81,0,1,0,94.57,47.76,46.86,46.86,0,0,0,47.76,1Z"/><path class="cls-2" d="M23.4,54.4a4.82,4.82,0,0,1-1.64-6.2c-2.58-2.76-3-15.65.71-17.41-1.56-3.53-.62-9.45,4-9.82a5,5,0,0,1,5.25-4.77c0-4.31,7.09-5.9,10.3-4.48a6.66,6.66,0,0,1,8.53,0c2.71-3.69,9.28-1.29,10.6,2.61,3.89-1.67,7.78,1.95,8.1,5.72,5.34.52,4.77,5.75,5.27,9.35.42,3,2.6,7.37-.27,10.2,3.1,2.59.62,5,.21,7.68-.8,5.26.77,4.94-4.23,6.92-5.7,2.25-11.71.55-17.53,1.42s-9.93,2.19-15.93.49"/><path class="cls-3" d="M26.92,52.41c-5.05-4.78-6.62,5.23-4.48,8.45,1.85,2.8,5.32,2.77,5.66-1.1"/><path class="cls-2" d="M25.53,63.31A4.4,4.4,0,0,1,22,61.12c-1.54-2.32-1.35-8,.85-9.87.69-.58,2.18-1.25,4.36.81l-.65.69c-1.26-1.18-2.29-1.44-3.09-.77-1.69,1.42-2.08,6.49-.67,8.61A3.2,3.2,0,0,0,26,62.3c.91-.23,1.5-1.17,1.63-2.58l.95.08c-.16,1.84-1,3.08-2.34,3.42A2.82,2.82,0,0,1,25.53,63.31Z"/><path class="cls-3" d="M69.68,52.41c5-4.78,6.62,5.23,4.49,8.45-1.86,2.8-5.33,2.77-5.67-1.1"/><path class="cls-2" d="M71.07,63.31a2.74,2.74,0,0,1-.7-.09C69,62.88,68.19,61.64,68,59.8l1-.08c.12,1.41.71,2.35,1.62,2.58a3.21,3.21,0,0,0,3.17-1.71c1.41-2.12,1-7.19-.67-8.61-.8-.67-1.84-.41-3.09.77l-.66-.69c2.18-2.06,3.67-1.39,4.36-.81,2.2,1.85,2.39,7.55.85,9.87A4.38,4.38,0,0,1,71.07,63.31Z"/><path class="cls-3" d="M69.87,61.48C70.71,50.89,72.69,33.86,68,24.1c-4.3-8.93-19.21-9.65-27.86-7.44-19.62,5-16.07,44.76-8.16,57.55C37,82.3,45.32,89.28,55.4,85.66,63.42,82.78,69.23,69.46,69.87,61.48Z"/><path class="cls-2" d="M50,87.12h0c-6.71,0-13.41-4.62-18.39-12.66-6.1-9.87-9-32.9-3.42-46.71C30.69,21.44,34.69,17.56,40,16.2a37.76,37.76,0,0,1,9.06-1.07c4.55,0,15.54.85,19.35,8.77,4.33,9,3.07,23.84,2.16,34.68-.09,1-.17,2-.25,2.94-.66,8.28-6.6,21.65-14.78,24.59A16.53,16.53,0,0,1,50,87.12Zm-.88-71a36.92,36.92,0,0,0-8.83,1c-5,1.28-8.79,5-11.21,11C23.1,42.82,27.12,65.45,32.38,74c4.8,7.75,11.21,12.2,17.58,12.2h0a15.67,15.67,0,0,0,5.28-1c7.7-2.77,13.53-15.93,14.15-23.77.08-.93.16-1.92.25-2.94.9-10.73,2.15-25.41-2.07-34.19C64,16.88,53.45,16.08,49.08,16.08Z"/><path class="cls-2" d="M52.74,70.79c-1,0-2-.06-2.94-.12-1.43-.1-2.67-.13-4-.1-2.42.07-4.93.13-6.83-1.32a.48.48,0,1,1,.58-.76c1.63,1.25,4,1.19,6.23,1.13,1.34,0,2.61,0,4.06.09a18.57,18.57,0,0,0,5.73-.18A8.33,8.33,0,0,0,58.21,68a.48.48,0,0,1,.7.66,9.52,9.52,0,0,1-3.06,1.77A11.92,11.92,0,0,1,52.74,70.79Z"/><path class="cls-2" d="M42.18,54.23a1.55,1.55,0,1,1-1.55-1.55A1.54,1.54,0,0,1,42.18,54.23Z"/><path class="cls-2" d="M59.83,54.23a1.55,1.55,0,1,1-1.55-1.55A1.55,1.55,0,0,1,59.83,54.23Z"/><path class="cls-2" d="M68,24.1c-4.3-8.93-19.21-9.65-27.86-7.44C26,20.27,23.89,42,26.79,58.57l.43.13c1.18-2.59,1.18-5.44,1-8.32,4.79-.84,4.18-5.7,5-9.35.52-2.34,2.73-6,2.9-9a8.35,8.35,0,0,0,11.84,1.9c.93,6.9,10.57,7,13.41,1.49.41,2.53,2.19,4.41,4.71,3.29-1,3.06,1.13,19.85,3.39,21.21l.57-.16C70.9,49.09,72.44,33.34,68,24.1Z"/><path class="cls-2" d="M48.71,63.7h0c-2.19,0-5.12-.77-6.15-2.89a.49.49,0,0,1,.22-.64.49.49,0,0,1,.64.23c.68,1.4,2.8,2.34,5.29,2.35h0c2.28,0,4.16-.83,4.8-2.12a.49.49,0,0,1,.64-.22.48.48,0,0,1,.21.64C53.4,63,50.82,63.7,48.71,63.7Z"/><path class="cls-2" d="M44.87,75.63a.49.49,0,0,1-.38-.18.48.48,0,0,1,.09-.67c2.19-1.69,6.16-2.47,8-.94a.48.48,0,0,1-.61.73c-1.32-1.1-4.75-.62-6.8,1A.46.46,0,0,1,44.87,75.63Z"/><path class="cls-2" d="M36.3,51.36a.49.49,0,0,1-.38-.19.47.47,0,0,1,.1-.67A9.15,9.15,0,0,1,43.31,49a.48.48,0,0,1,.39.55.47.47,0,0,1-.55.39,8.24,8.24,0,0,0-6.56,1.35A.46.46,0,0,1,36.3,51.36Z"/><path class="cls-2" d="M61.66,50.83a.45.45,0,0,1-.2,0c-2.65-1.26-4.59-1.41-5.92-.44a.48.48,0,0,1-.67-.1.47.47,0,0,1,.11-.67c1.64-1.19,3.9-1.08,6.89.35a.46.46,0,0,1,.22.63A.47.47,0,0,1,61.66,50.83Z"/></g></g></svg>