<svg xmlns="http://www.w3.org/2000/svg" viewBox="0 0 95.53 95.53"><defs><style>.cls-1{fill:#209baa;}.cls-2{fill:#00133a;}.cls-3{fill:#fff;}</style></defs><title>avatar-7</title><g id="Layer_2" data-name="Layer 2"><g id="OBJECTS"><circle class="cls-1" cx="47.76" cy="47.76" r="47.29" transform="translate(-14.58 21.77) rotate(-22.36)"/><path class="cls-2" d="M47.76,95.53A47.77,47.77,0,1,1,95.53,47.76,47.82,47.82,0,0,1,47.76,95.53ZM47.76,1A46.81,46.81,0,1,0,94.57,47.76,46.86,46.86,0,0,0,47.76,1Z"/><path class="cls-2" d="M73.63,46.67c0,5.5-.53,10.67-.53,16.08,0,2.69.28,5.32.27,7.89,0,1.37,0,2.75-.06,4.09s.2,2.45,0,3.77c-1.93.85-4.21,0-6.23.3a12.37,12.37,0,0,1-2.87.56c-1.13,0-2.28-.46-3.39-.56-2.25-.19-4.54.2-6.79,0s-4.33-.9-6.52-1.09c-4.24-.37-8.46.92-12.79.54s-8.52-.16-12.76-.59c.65-2.05.56-5.05.75-7.31a50.82,50.82,0,0,0,0-7.9c-.19-2.44-.41-4.95-.73-7.35-.21-1.61-1.25-6.2-.31-7.36"/><path class="cls-3" d="M25.51,45.56c-6-5.69-7.9,6.25-5.36,10.09C22.37,59,26.51,59,26.91,54.34"/><path class="cls-2" d="M23.84,58.48a5.17,5.17,0,0,1-4.09-2.57c-1.81-2.74-1.59-9.47,1-11.66.81-.67,2.54-1.44,5.09,1l-.66.69c-1.53-1.45-2.82-1.76-3.81-.92-2.19,1.83-2.39,8-.82,10.4,1,1.56,2.59,2.39,3.88,2.07,1.12-.29,1.85-1.44,2-3.16l.95.08c-.19,2.15-1.18,3.61-2.72,4A3.31,3.31,0,0,1,23.84,58.48Z"/><path class="cls-3" d="M70,45.56c6-5.69,7.9,6.25,5.35,10.09C73.16,59,69,59,68.62,54.34"/><path class="cls-2" d="M71.68,58.48a3.29,3.29,0,0,1-.82-.1c-1.54-.39-2.53-1.85-2.72-4l1-.08c.15,1.72.88,2.87,2,3.16,1.29.32,2.84-.51,3.88-2.07,1.57-2.37,1.36-8.57-.82-10.4-1-.84-2.28-.53-3.81.92l-.66-.69c2.55-2.42,4.28-1.64,5.08-1,2.6,2.18,2.82,8.91,1,11.65A5.15,5.15,0,0,1,71.68,58.48Z"/><path class="cls-3" d="M71.3,57.14c.93-10.7,3.08-27.92-2-37.78-4.7-9-21-9.76-30.46-7.52C17.35,16.9,21.24,57.09,29.88,70c5.48,8.18,14.59,15.23,25.61,11.57C64.25,78.67,70.61,65.21,71.3,57.14Z"/><path class="cls-2" d="M49.54,83.05h0c-7.31,0-14.62-4.66-20-12.77C23.12,60.75,19.84,38,25.33,24.05c2.74-7,7.23-11.23,13.36-12.68a44.8,44.8,0,0,1,9.89-1.08c5,0,17,.87,21.1,8.85,4.74,9.12,3.37,24.12,2.36,35.07-.09,1-.18,2-.26,3C71.06,65.56,64.57,79.07,55.64,82A19.45,19.45,0,0,1,49.54,83.05Zm-1-71.8a43.42,43.42,0,0,0-9.67,1.05c-5.81,1.37-10.08,5.45-12.7,12.1-5.38,13.7-2.17,36,4.07,45.34C35.53,77.59,42.55,82.1,49.54,82.1h0a18.52,18.52,0,0,0,5.8-1c8.43-2.8,14.81-16.1,15.49-24,.08-.94.17-1.94.27-3,1-10.83,2.34-25.67-2.26-34.54C64.92,12.06,53.36,11.25,48.58,11.25Z"/><path class="cls-2" d="M39.65,49.74a1.85,1.85,0,1,1-1.85-1.85A1.84,1.84,0,0,1,39.65,49.74Z"/><path class="cls-2" d="M59.57,49.74a1.85,1.85,0,1,1-1.85-1.85A1.84,1.84,0,0,1,59.57,49.74Z"/><path class="cls-2" d="M47.66,61.77a6.33,6.33,0,0,1-3.56-1.29.48.48,0,0,1,.6-.74,4.72,4.72,0,0,0,3.59,1,1.11,1.11,0,0,0,.78-.76.48.48,0,0,1,.91.28,2,2,0,0,1-1.42,1.4A3.32,3.32,0,0,1,47.66,61.77Z"/><path class="cls-2" d="M69.26,19.36c-4.7-9-21-9.76-30.46-7.52C23.36,15.48,21.05,37.35,24.2,54.12l.19,0c.7-.75.95-2.37,1.27-3.43.39-1.25.77-2.46,1.05-3.75a49.81,49.81,0,0,0,1.08-8.26c.1-1.82,1.11-1.31,2.62-1.41,1.32-.08,2.66-.22,4-.31a16,16,0,0,1,3.74.46,9.93,9.93,0,0,0,1.32.11,26.41,26.41,0,0,1,.21-3.14c.25-1.69-.12-3.48.1-5.18a8.59,8.59,0,0,1,.52,1.53c.2.6.4,1.18.55,1.79s.32,1.24.47,1.86a5.13,5.13,0,0,0,.51,1.8c.47-.38.39-1.83.48-2.42a23.09,23.09,0,0,0,.36-2.59,2.62,2.62,0,0,1,0-.49,4.09,4.09,0,0,1,0,.49c0,.4.11.84.16,1.19.08.61.16,1.2.25,1.8s.3,1.33.44,2c0,.19.1.71.18,1.2a44.7,44.7,0,0,1,4.49.24c2.21.18,4.33,0,6.48.16a35.84,35.84,0,0,0,5,0,43.88,43.88,0,0,0,.9-4.7c.09-1.09.18-2.19.27-3.26a9.31,9.31,0,0,1,.38-3.08c1.24,1.86.54,5.28.74,7.44.09,1,.18,2.09.27,3.12,0,.11,0,.22,0,.33a36.58,36.58,0,0,1,4.91,0c.11,1.3,0,2.61.19,3.88s.45,2.4.64,3.58a19.07,19.07,0,0,0,1.93,6.56c.24.42,1.15,2.33,1.68,2.48C72.55,43.42,73.93,28.35,69.26,19.36Z"/><path class="cls-2" d="M32.22,46.17a.53.53,0,0,1-.27-.08.48.48,0,0,1-.12-.67,3.46,3.46,0,0,1,2.26-1.34c.25-.06.44-.12.63-.18a8.74,8.74,0,0,1,2.47-.45h0A10.48,10.48,0,0,1,41.89,45a.48.48,0,0,1-.45.85,9.39,9.39,0,0,0-4.24-1.4,9.79,9.79,0,0,0-2.21.41l-.6.17a2.69,2.69,0,0,0-1.78,1A.46.46,0,0,1,32.22,46.17Z"/><path class="cls-2" d="M62.45,46.17a.48.48,0,0,1-.4-.21,2.62,2.62,0,0,0-1.73-1l-.65-.18a7.78,7.78,0,0,0-2.19-.41h0a9.43,9.43,0,0,0-4.25,1.4.48.48,0,0,1-.44-.85,10.44,10.44,0,0,1,4.68-1.51h0a8.6,8.6,0,0,1,2.46.45l.58.17a3.55,3.55,0,0,1,2.32,1.35.49.49,0,0,1-.12.67A.56.56,0,0,1,62.45,46.17Z"/><path class="cls-2" d="M47.38,68.84c-4,0-8-1.14-10.25-3.07a.49.49,0,0,1-.05-.68.47.47,0,0,1,.67,0c2.59,2.21,7.84,3.32,12.5,2.64,3.43-.51,6-1.88,7.32-3.88a.47.47,0,0,1,.66-.14.48.48,0,0,1,.14.66c-1.43,2.23-4.27,3.76-8,4.3A20.22,20.22,0,0,1,47.38,68.84Z"/><path class="cls-2" d="M35.06,49.94a2.35,2.35,0,0,1-1.36-.38.49.49,0,0,1-.12-.67.48.48,0,0,1,.66-.12,2.16,2.16,0,0,0,1.53.16,7,7,0,0,1,.78-.06h0a.48.48,0,0,1,0,1,5.2,5.2,0,0,0-.68.06A7.36,7.36,0,0,1,35.06,49.94Z"/><path class="cls-2" d="M34.81,52a.8.8,0,0,1-.23,0,.66.66,0,0,1-.46-.36.49.49,0,0,1,.24-.64.48.48,0,0,1,.51.08,6.59,6.59,0,0,0,2.05-.85.47.47,0,1,1,.58.75A6.8,6.8,0,0,1,34.81,52Z"/><path class="cls-2" d="M58.87,49.91l-.43,0a.48.48,0,0,1,.07-1,3.66,3.66,0,0,0,2.76-.78.5.5,0,0,1,.68,0,.49.49,0,0,1,0,.68A4.45,4.45,0,0,1,58.87,49.91Z"/><path class="cls-2" d="M60.3,51.81a5.48,5.48,0,0,1-2.12-.6l-.12-.05a.46.46,0,0,1-.24-.62.48.48,0,0,1,.63-.25l.11.05c.72.32,1.8.8,2.37.32a.48.48,0,1,1,.62.72A1.85,1.85,0,0,1,60.3,51.81Z"/></g></g></svg>