<svg xmlns="http://www.w3.org/2000/svg" viewBox="0 0 95.53 95.53"><defs><style>.cls-1{fill:#007096;}.cls-2{fill:#00133a;}.cls-3{fill:#fff;}</style></defs><title>avatar-2</title><g id="Layer_2" data-name="Layer 2"><g id="OBJECTS"><path class="cls-1" d="M95.05,47.76A47.29,47.29,0,1,1,47.76.48,47.29,47.29,0,0,1,95.05,47.76Z"/><path class="cls-2" d="M47.76,95.53A47.77,47.77,0,1,1,95.53,47.76,47.82,47.82,0,0,1,47.76,95.53ZM47.76,1A46.81,46.81,0,1,0,94.57,47.76,46.86,46.86,0,0,0,47.76,1Z"/><path class="cls-3" d="M25,50.19c-5.39-5.08-7.06,5.58-4.78,9,2,3,5.67,3,6-1.17"/><path class="cls-2" d="M23.5,61.78a4.65,4.65,0,0,1-3.69-2.32C18.18,57,18.37,51,20.71,49c.73-.62,2.3-1.32,4.6.86l-.65.69c-1.35-1.27-2.47-1.55-3.34-.82-1.8,1.52-2.22,6.94-.72,9.22.92,1.37,2.29,2.11,3.41,1.82S25.63,59.5,25.76,58l.95.08c-.16,1.94-1.06,3.26-2.46,3.62A3.2,3.2,0,0,1,23.5,61.78Z"/><path class="cls-3" d="M70.54,50.19c5.38-5.08,7,5.58,4.78,9-2,3-5.67,3-6-1.17"/><path class="cls-2" d="M72,61.78a3.06,3.06,0,0,1-.74-.09c-1.4-.36-2.3-1.68-2.47-3.62l1-.08c.14,1.51.77,2.52,1.75,2.77s2.5-.45,3.41-1.82c1.51-2.28,1.09-7.7-.72-9.22-.86-.73-2-.45-3.33.82l-.66-.69c2.31-2.18,3.88-1.48,4.61-.86,2.33,2,2.53,8,.9,10.47A4.65,4.65,0,0,1,72,61.78Z"/><path class="cls-3" d="M70.74,59.86c.9-11.28,3-29.43-2-39.82-4.58-9.52-20.46-10.29-29.69-7.93-20.9,5.34-17.12,47.69-8.69,61.31,5.34,8.63,14.21,16.06,25,12.2C63.87,82.55,70.06,68.36,70.74,59.86Z"/><path class="cls-2" d="M49.53,87.15h0c-7.14,0-14.27-4.91-19.57-13.48-6.5-10.5-9.57-35-3.64-49.74,2.71-6.7,7-10.84,12.62-12.28a40,40,0,0,1,9.65-1.14c4.84,0,16.54.9,20.59,9.32,4.61,9.6,3.27,25.4,2.3,36.93-.1,1.1-.18,2.14-.26,3.14-.71,8.82-7,23.05-15.73,26.17A17.48,17.48,0,0,1,49.53,87.15Zm-.94-75.69a39,39,0,0,0-9.41,1.11c-5.36,1.37-9.39,5.31-12,11.72C20.88,40,25.16,64.1,30.78,73.17c5.11,8.28,11.95,13,18.75,13h0a16.52,16.52,0,0,0,5.63-1c8.22-3,14.44-17,15.11-25.35.07-1,.16-2,.26-3.14,1-11.43,2.29-27.08-2.21-36.43C64.5,12.32,53.25,11.46,48.59,11.46Z"/><path class="cls-2" d="M52.49,69.76c-1,0-2.08-.07-3.13-.14-1.53-.1-2.85-.14-4.24-.1-2.58.07-5.24.13-7.26-1.41a.48.48,0,0,1-.09-.67.49.49,0,0,1,.67-.09c1.75,1.34,4.24,1.28,6.66,1.22,1.43,0,2.78,0,4.32.1a19.83,19.83,0,0,0,6.12-.2,9.2,9.2,0,0,0,2.81-1.62.47.47,0,0,1,.67,0,.49.49,0,0,1,0,.68,10,10,0,0,1-3.24,1.88A12.58,12.58,0,0,1,52.49,69.76Z"/><path class="cls-2" d="M45.21,76.83a.45.45,0,0,1-.32-.13.47.47,0,0,1,0-.67c1.93-2.11,5-2.87,9-2.26a.49.49,0,0,1,.4.55.49.49,0,0,1-.55.4c-3.67-.56-6.4.1-8.1,2A.51.51,0,0,1,45.21,76.83Z"/><path class="cls-2" d="M40.9,52.14a1.65,1.65,0,1,1-1.65-1.65A1.65,1.65,0,0,1,40.9,52.14Z"/><path class="cls-2" d="M59.7,52.14a1.65,1.65,0,1,1-1.65-1.65A1.65,1.65,0,0,1,59.7,52.14Z"/><path class="cls-2" d="M40,45.82l-.84-.1c-1.34-.29-6.61-.27-7.21,1.52-.76,2.23,6.13,1.69,7.63,1.51.91-.11,3.63-.51,3.46-2S40.29,45.75,40,45.82Z"/><path class="cls-2" d="M62.23,45.82l-.84-.1c-1.34-.29-6.6-.27-7.21,1.52-.75,2.23,6.13,1.69,7.63,1.51.91-.11,3.64-.51,3.46-2S62.51,45.75,62.23,45.82Z"/><path class="cls-2" d="M68.75,20c-4.58-9.52-20.46-10.29-29.69-7.93C24.41,15.85,21.89,37.79,24.6,55.26l.07.09a5.42,5.42,0,0,1,2.1-.38c.32-2.69-1.05-5.94.13-8.49.62-1.36,1.9-2,2.36-3.6s-.06-2.64-.28-4.12a17.87,17.87,0,0,1-.08-2.93c2.72.68,5.31,2.21,8.24,2.85,4.85,1.06,10.16.88,15.16.53a36.49,36.49,0,0,0,4.9-.64,20.47,20.47,0,0,1-4.37-1.91c4.37.4,8.77,1,13-.1-.43,3.47,1.87,5.39,1.93,8.7.07,3,.55,6,.48,9,.94.24,2.11.54,2.83.75h.07C72.08,43.84,73.07,29,68.75,20Z"/></g></g></svg>