<svg xmlns="http://www.w3.org/2000/svg" viewBox="0 0 95.53 95.53"><defs><style>.cls-1{fill:#ffae65;}.cls-2{fill:#00133a;}.cls-3{fill:#fff;}</style></defs><title>avatar-4</title><g id="Layer_2" data-name="Layer 2"><g id="OBJECTS"><path class="cls-1" d="M95.05,47.76A47.29,47.29,0,1,1,47.76.48,47.29,47.29,0,0,1,95.05,47.76Z"/><path class="cls-2" d="M47.76,95.53A47.77,47.77,0,1,1,95.53,47.76,47.82,47.82,0,0,1,47.76,95.53ZM47.76,1A46.81,46.81,0,1,0,94.57,47.76,46.86,46.86,0,0,0,47.76,1Z"/><path class="cls-3" d="M23,49.05c-5.05-4.78-6.62,5.23-4.49,8.45,1.86,2.8,5.32,2.78,5.66-1.1"/><path class="cls-2" d="M21.61,60a4.4,4.4,0,0,1-3.49-2.19c-1.53-2.32-1.35-8,.86-9.87.69-.58,2.17-1.25,4.35.81l-.65.69c-1.25-1.18-2.29-1.44-3.09-.77-1.68,1.42-2.08,6.49-.67,8.62a3.21,3.21,0,0,0,3.17,1.7c.9-.23,1.49-1.17,1.62-2.58l.95.08c-.16,1.84-1,3.09-2.34,3.42A2.82,2.82,0,0,1,21.61,60Z"/><path class="cls-3" d="M72.52,49.05c5-4.78,6.62,5.23,4.49,8.45-1.86,2.8-5.33,2.78-5.67-1.1"/><path class="cls-2" d="M73.91,60a2.8,2.8,0,0,1-.7-.09c-1.33-.33-2.18-1.58-2.34-3.42l.95-.08c.12,1.41.71,2.35,1.62,2.58a3.21,3.21,0,0,0,3.17-1.7c1.41-2.13,1-7.2-.67-8.62-.8-.67-1.84-.41-3.09.77l-.66-.69c2.18-2.06,3.67-1.39,4.36-.81,2.2,1.85,2.39,7.55.85,9.87A4.37,4.37,0,0,1,73.91,60Z"/><path class="cls-3" d="M72.38,58.12c1-10.59,3.22-27.62-2.13-37.37-4.92-8.94-22-9.66-31.86-7.45C16,18.31,20,58.07,29.07,70.85c5.72,8.09,15.25,15.07,26.77,11.45C65,79.42,71.66,66.1,72.38,58.12Z"/><path class="cls-2" d="M49.62,83.76h0c-7.63,0-15.27-4.61-20.94-12.63-6.59-9.31-10-31-4.66-45,2.83-7.33,7.63-11.8,14.27-13.28a48.79,48.79,0,0,1,10.32-1.07c5.19,0,17.71.85,22,8.75,5,9,3.53,23.87,2.48,34.71-.1,1-.2,2-.28,2.93C72.1,66.46,65.32,79.82,56,82.75A21.06,21.06,0,0,1,49.62,83.76Zm-1-71a47.46,47.46,0,0,0-10.11,1c-6.31,1.41-10.88,5.68-13.59,12.69-5.29,13.74-1.9,35,4.55,44.11C35,78.35,42.3,82.8,49.62,82.8a20.19,20.19,0,0,0,6.08-1c8.82-2.77,15.49-15.92,16.21-23.76.08-.94.18-1.92.28-2.95,1-10.71,2.45-25.39-2.36-34.15C65.73,13.53,53.63,12.72,48.61,12.72Z"/><path class="cls-2" d="M41.81,50.88a1.55,1.55,0,1,1-1.55-1.55A1.54,1.54,0,0,1,41.81,50.88Z"/><path class="cls-2" d="M59.46,50.88a1.55,1.55,0,1,1-1.55-1.55A1.55,1.55,0,0,1,59.46,50.88Z"/><path class="cls-2" d="M41,42.08,40.19,42c-1.26-.28-6.19-.26-6.77,1.42-.7,2.09,5.76,1.59,7.17,1.42.85-.1,3.41-.48,3.25-1.85S41.24,42,41,42.08Z"/><path class="cls-2" d="M61.83,42.08,61,42c-1.26-.28-6.2-.26-6.77,1.42C53.57,45.5,60,45,61.43,44.83c.86-.1,3.42-.48,3.26-1.85S62.09,42,61.83,42.08Z"/><path class="cls-2" d="M46.15,68.39a24.38,24.38,0,0,1-6.25-.69c-1.89-.54-3.13-1.37-3.67-2.48a.47.47,0,1,1,.85-.42c.42.86,1.46,1.52,3.08,2,5.82,1.63,17.32-.08,20.19-1.93.69-.44,1-.62,1.24-.23s-.13.68-.26.78a.46.46,0,0,1-.19.08l-.27.18C58.66,67.07,52,68.39,46.15,68.39Z"/><path class="cls-2" d="M42.65,55.47H40.17c-3.25,0-6.54-.16-8-2.06a4,4,0,0,1-.36-3.7c.86-2.9,4.6-3.23,7.34-3.23,1.06,0,2.11.06,3,.11.6,0,1.15.06,1.62.07H44a2.82,2.82,0,0,1,2.21,1,5.92,5.92,0,0,1,1,4.54C46.65,55.23,44.82,55.47,42.65,55.47Zm-1.91-1h1.91c2.19,0,3.19-.23,3.56-2.46a5,5,0,0,0-.78-3.77A1.87,1.87,0,0,0,44,47.6h-.12c-.48,0-1,0-1.65-.07-.91-.05-1.94-.11-3-.11-3.87,0-5.91.81-6.43,2.55A3.08,3.08,0,0,0,33,52.83c1.24,1.67,5,1.67,7.18,1.67Z"/><path class="cls-2" d="M59.67,55.47c-1.06,0-2.1,0-3-.1-.59,0-1.14-.06-1.61-.07h-.11a2.84,2.84,0,0,1-2.21-1,6,6,0,0,1-1-4.54c.5-3,2.33-3.26,4.49-3.26h2.52c3.23,0,6.51.15,7.92,2A4,4,0,0,1,67,52.25C66.15,55.14,62.41,55.47,59.67,55.47ZM55,54.34c.49,0,1,0,1.66.07.91.05,1.94.11,3,.11,3.87,0,5.91-.81,6.43-2.55a3.09,3.09,0,0,0-.22-2.86c-1.24-1.67-4.94-1.67-7.15-1.67H56.21c-2.13,0-3.18.25-3.55,2.46a5,5,0,0,0,.78,3.77,1.88,1.88,0,0,0,1.48.7Z"/><path class="cls-2" d="M46.69,51.51a.48.48,0,0,1-.45-.35.47.47,0,0,1,.32-.59,11.15,11.15,0,0,1,5.69-.08.49.49,0,0,1,.31.6.48.48,0,0,1-.6.31,10.22,10.22,0,0,0-5.13.09Z"/><path class="cls-2" d="M48.54,62.93c-1.15,0-3.47-.18-4.29-1.62-.48-.86-.31-1.92.51-3.16a.48.48,0,1,1,.8.52c-.61.92-.77,1.65-.48,2.17.44.77,2,1.21,3.84,1.13h.33c1,0,2.53-.09,3.13-.76a2.55,2.55,0,0,0,.42-1.85,1,1,0,0,0-.4-.72.47.47,0,0,1-.19-.64.48.48,0,0,1,.65-.19,1.82,1.82,0,0,1,.88,1.39,3.41,3.41,0,0,1-.65,2.65c-.88,1-2.57,1-3.81,1.07l-.32,0Z"/><path class="cls-2" d="M32.11,51.27a.5.5,0,0,1-.26-.08c-2.61-1.68-7-2.64-10.24-3.34l-.33-.08a.48.48,0,1,1,.2-.93l.33.07c3.29.72,7.8,1.7,10.56,3.48a.48.48,0,0,1-.26.88Z"/><path class="cls-2" d="M66.78,51a.47.47,0,0,1-.45-.32.48.48,0,0,1,.28-.61c.88-.32,1.88-.77,2.86-1.21a35.21,35.21,0,0,1,3.4-1.4.47.47,0,0,1,.6.3.48.48,0,0,1-.31.6c-1,.32-2.15.85-3.3,1.37-1,.44-2,.9-2.92,1.24A.45.45,0,0,1,66.78,51Z"/><path class="cls-2" d="M28.92,19c3.31,3.45,4.43,10.05,3.63,14.65a9.58,9.58,0,0,1-3.34,6.1c-2.52,1.88-3.27,1-4.64,3.91-.38.8-.26,2-.6,2.88-3.32,0-4.52.26-4.91-3.42a57.09,57.09,0,0,1,0-11.47c.49-4.18,4.87-13.28,9.87-12.65"/><path class="cls-2" d="M68.12,18c-.64,4.16-2.48,7.91-2.65,12.18-.19,4.56,1.93,6.64,3.83,10.41,1.33,2.66,1,9.13,5.67,5,3.17-2.77,2.4-8.08,2.32-11.91-.13-6.22-2.83-13.43-8.93-15.56"/><path class="cls-2" d="M24.4,43.76c0,1.55-.38,2.9-.28,4.5s.59,2.8.74,4.32.55,3.07.79,4.6c.14.87.3,1.37-.19,2.1a5.08,5.08,0,0,1-1.83,1.66c-1.05.25-1.21-1.9-1.53-2.8-.5-1.44-.8-3-1.15-4.48-.42-1.79-.47-3.69-.84-5.42-.16-.74-.18-1.51-.38-2.28s-.53-1.24-.19-1.79c.71-1.16,3.3-1.06,4.48-.8.14,0,.12.07.19.1"/><path class="cls-2" d="M71.38,45.48c0,3.07.47,6.28,0,9.3-.21,1.33-.84,3-.57,4.41a2.45,2.45,0,0,0,1.08,1.41c.83.55,1.27.53,1.51-.35a49.25,49.25,0,0,0,1-8,37.66,37.66,0,0,0,.22-3.83c0-1.12.32-3.12-.29-3.94"/></g></g></svg>